<?xml version="1.0" encoding="UTF-8" standalone="no"?>
<!DOCTYPE svg PUBLIC "-//W3C//DTD SVG 1.1//EN"
 "http://www.w3.org/Graphics/SVG/1.1/DTD/svg11.dtd">
<!-- Generated by graphviz version 2.36.0 (20140111.2315)
 -->
<!-- Title: callgraph Pages: 1 -->
<svg width="1036pt" height="854pt"
 viewBox="0.00 0.00 1036.00 854.00" xmlns="http://www.w3.org/2000/svg" xmlns:xlink="http://www.w3.org/1999/xlink">
<g id="graph0" class="graph" transform="scale(1 1) rotate(0) translate(4 850)">
<title>callgraph</title>
<polygon fill="white" stroke="none" points="-4,4 -4,-850 1032,-850 1032,4 -4,4"/>
<!-- Mage_Captcha_Block_Captcha -->
<g id="node1" class="node"><title>Mage_Captcha_Block_Captcha</title>
<polygon fill="#dddddd" stroke="none" points="276.5,-684 51.5,-684 51.5,-648 276.5,-648 276.5,-684"/>
<text text-anchor="middle" x="164" y="-662.3" font-family="verdana" font-size="14.00">Mage_Captcha_Block_Captcha</text>
</g>
<!-- Mage_Core_Block_Template -->
<g id="node2" class="node"><title>Mage_Core_Block_Template</title>
<polygon fill="#dddddd" stroke="none" points="629.5,-725 422.5,-725 422.5,-689 629.5,-689 629.5,-725"/>
<text text-anchor="middle" x="526" y="-703.3" font-family="verdana" font-size="14.00">Mage_Core_Block_Template</text>
</g>
<!-- Mage_Captcha_Block_Captcha&#45;&gt;Mage_Core_Block_Template -->
<g id="edge1" class="edge"><title>Mage_Captcha_Block_Captcha&#45;&gt;Mage_Core_Block_Template</title>
<path fill="none" stroke="#dddddd" stroke-width="2" d="M276.933,-678.748C321.015,-683.768 371.486,-689.516 415.344,-694.511"/>
<polygon fill="#dddddd" stroke="#dddddd" stroke-width="2" points="422.324,-695.306 415.012,-697.644 418.79,-695.407 415.312,-695.011 415.369,-694.514 415.426,-694.017 418.903,-694.413 415.725,-691.384 422.324,-695.306 422.324,-695.306"/>
</g>
<!-- Mage_Captcha_Helper_Data -->
<g id="node3" class="node"><title>Mage_Captcha_Helper_Data</title>
<polygon fill="#dddddd" stroke="none" points="631.5,-630 420.5,-630 420.5,-594 631.5,-594 631.5,-630"/>
<text text-anchor="middle" x="526" y="-608.3" font-family="verdana" font-size="14.00">Mage_Captcha_Helper_Data</text>
</g>
<!-- Mage_Captcha_Block_Captcha&#45;&gt;Mage_Captcha_Helper_Data -->
<g id="edge2" class="edge"><title>Mage_Captcha_Block_Captcha&#45;&gt;Mage_Captcha_Helper_Data</title>
<path fill="none" stroke="#dddddd" stroke-dasharray="1,5" d="M276.933,-649.21C320.24,-642.714 369.713,-635.293 413.024,-628.796"/>
<polygon fill="#dddddd" stroke="#dddddd" points="420.199,-627.72 413.743,-631.874 416.737,-628.239 413.276,-628.759 413.276,-628.759 413.276,-628.759 416.737,-628.239 412.809,-625.644 420.199,-627.72 420.199,-627.72"/>
</g>
<!-- Mage_Core_Helper_Abstract -->
<g id="node29" class="node"><title>Mage_Core_Helper_Abstract</title>
<polygon fill="#dddddd" stroke="none" points="981.5,-603 770.5,-603 770.5,-567 981.5,-567 981.5,-603"/>
<text text-anchor="middle" x="876" y="-581.3" font-family="verdana" font-size="14.00">Mage_Core_Helper_Abstract</text>
</g>
<!-- Mage_Captcha_Helper_Data&#45;&gt;Mage_Core_Helper_Abstract -->
<g id="edge30" class="edge"><title>Mage_Captcha_Helper_Data&#45;&gt;Mage_Core_Helper_Abstract</title>
<path fill="none" stroke="#dddddd" stroke-width="2" d="M631.883,-603.862C673.4,-600.641 721.186,-596.934 763.345,-593.663"/>
<polygon fill="#dddddd" stroke="#dddddd" stroke-width="2" points="770.331,-593.121 763.596,-596.803 766.881,-593.89 763.391,-594.161 763.352,-593.662 763.314,-593.164 766.803,-592.893 763.109,-590.522 770.331,-593.121 770.331,-593.121"/>
</g>
<!-- Mage_Captcha_Model -->
<g id="node30" class="node"><title>Mage_Captcha_Model</title>
<polygon fill="#dddddd" stroke="none" points="958.5,-657 793.5,-657 793.5,-621 958.5,-621 958.5,-657"/>
<text text-anchor="middle" x="876" y="-635.3" font-family="verdana" font-size="14.00">Mage_Captcha_Model</text>
</g>
<!-- Mage_Captcha_Helper_Data&#45;&gt;Mage_Captcha_Model -->
<g id="edge31" class="edge"><title>Mage_Captcha_Helper_Data&#45;&gt;Mage_Captcha_Model</title>
<path fill="none" stroke="#dddddd" stroke-dasharray="5,2" d="M631.883,-620.138C681.091,-623.955 739.104,-628.456 786.118,-632.104"/>
<polygon fill="#dddddd" stroke="#dddddd" points="793.268,-632.659 786.045,-635.258 789.779,-632.388 786.289,-632.117 786.289,-632.117 786.289,-632.117 789.779,-632.388 786.533,-628.977 793.268,-632.659 793.268,-632.659"/>
</g>
<!-- Mage_Captcha_Block_Captcha_Zend -->
<g id="node4" class="node"><title>Mage_Captcha_Block_Captcha_Zend</title>
<polygon fill="#dddddd" stroke="none" points="298,-738 30,-738 30,-702 298,-702 298,-738"/>
<text text-anchor="middle" x="164" y="-716.3" font-family="verdana" font-size="14.00">Mage_Captcha_Block_Captcha_Zend</text>
</g>
<!-- Mage_Captcha_Block_Captcha_Zend&#45;&gt;Mage_Core_Block_Template -->
<g id="edge3" class="edge"><title>Mage_Captcha_Block_Captcha_Zend&#45;&gt;Mage_Core_Block_Template</title>
<path fill="none" stroke="#dddddd" stroke-width="2" d="M298.028,-715.196C336.522,-713.806 378.098,-712.305 415.018,-710.972"/>
<polygon fill="#dddddd" stroke="#dddddd" stroke-width="2" points="422.337,-710.707 415.455,-714.108 418.857,-711.333 415.36,-711.46 415.342,-710.96 415.324,-710.46 418.821,-710.334 415.228,-707.812 422.337,-710.707 422.337,-710.707"/>
</g>
<!-- Mage_Captcha_Block_Captcha_Zend&#45;&gt;Mage_Captcha_Helper_Data -->
<g id="edge4" class="edge"><title>Mage_Captcha_Block_Captcha_Zend&#45;&gt;Mage_Captcha_Helper_Data</title>
<path fill="none" stroke="#dddddd" stroke-dasharray="1,5" d="M291.548,-701.945C303.949,-699.307 316.274,-696.335 328,-693 342.88,-688.767 422.485,-655.457 475.837,-632.893"/>
<polygon fill="#dddddd" stroke="#dddddd" points="482.532,-630.06 477.313,-635.689 479.308,-631.424 476.085,-632.788 476.085,-632.788 476.085,-632.788 479.308,-631.424 474.857,-629.887 482.532,-630.06 482.532,-630.06"/>
</g>
<!-- Mage_Captcha_Model_Config_Form_Backend -->
<g id="node5" class="node"><title>Mage_Captcha_Model_Config_Form_Backend</title>
<polygon fill="#dddddd" stroke="none" points="325.5,-846 2.5,-846 2.5,-810 325.5,-810 325.5,-846"/>
<text text-anchor="middle" x="164" y="-824.3" font-family="verdana" font-size="14.00">Mage_Captcha_Model_Config_Form_Backend</text>
</g>
<!-- Mage_Captcha_Model_Config_Form_Abstract -->
<g id="node6" class="node"><title>Mage_Captcha_Model_Config_Form_Abstract</title>
<polygon fill="#dddddd" stroke="none" points="687.5,-806 364.5,-806 364.5,-770 687.5,-770 687.5,-806"/>
<text text-anchor="middle" x="526" y="-784.3" font-family="verdana" font-size="14.00">Mage_Captcha_Model_Config_Form_Abstract</text>
</g>
<!-- Mage_Captcha_Model_Config_Form_Backend&#45;&gt;Mage_Captcha_Model_Config_Form_Abstract -->
<g id="edge5" class="edge"><title>Mage_Captcha_Model_Config_Form_Backend&#45;&gt;Mage_Captcha_Model_Config_Form_Abstract</title>
<path fill="none" stroke="#dddddd" stroke-width="2" d="M325.522,-810.164C336.135,-808.985 346.839,-807.796 357.485,-806.613"/>
<polygon fill="#dddddd" stroke="#dddddd" stroke-width="2" points="364.471,-805.837 357.861,-809.74 361.047,-806.72 357.569,-807.107 357.513,-806.61 357.458,-806.113 360.937,-805.726 357.165,-803.479 364.471,-805.837 364.471,-805.837"/>
</g>
<!-- Mage_Core_Model_Config_Data -->
<g id="node7" class="node"><title>Mage_Core_Model_Config_Data</title>
<polygon fill="#dddddd" stroke="none" points="992.5,-806 759.5,-806 759.5,-770 992.5,-770 992.5,-806"/>
<text text-anchor="middle" x="876" y="-784.3" font-family="verdana" font-size="14.00">Mage_Core_Model_Config_Data</text>
</g>
<!-- Mage_Captcha_Model_Config_Form_Abstract&#45;&gt;Mage_Core_Model_Config_Data -->
<g id="edge6" class="edge"><title>Mage_Captcha_Model_Config_Form_Abstract&#45;&gt;Mage_Core_Model_Config_Data</title>
<path fill="none" stroke="#dddddd" stroke-width="2" d="M687.503,-788C709.282,-788 731.344,-788 752.314,-788"/>
<polygon fill="#dddddd" stroke="#dddddd" stroke-width="2" points="759.382,-788 752.382,-791.15 755.882,-788.5 752.382,-788.5 752.382,-788 752.382,-787.5 755.882,-787.5 752.382,-784.85 759.382,-788 759.382,-788"/>
</g>
<!-- Mage_Captcha_Model_Config_Form_Frontend -->
<g id="node8" class="node"><title>Mage_Captcha_Model_Config_Form_Frontend</title>
<polygon fill="#dddddd" stroke="none" points="328,-792 0,-792 0,-756 328,-756 328,-792"/>
<text text-anchor="middle" x="164" y="-770.3" font-family="verdana" font-size="14.00">Mage_Captcha_Model_Config_Form_Frontend</text>
</g>
<!-- Mage_Captcha_Model_Config_Form_Frontend&#45;&gt;Mage_Captcha_Model_Config_Form_Abstract -->
<g id="edge7" class="edge"><title>Mage_Captcha_Model_Config_Form_Frontend&#45;&gt;Mage_Captcha_Model_Config_Form_Abstract</title>
<path fill="none" stroke="#dddddd" stroke-width="2" d="M328.147,-780.345C337.803,-780.72 347.524,-781.098 357.198,-781.474"/>
<polygon fill="#dddddd" stroke="#dddddd" stroke-width="2" points="364.232,-781.748 357.115,-784.623 360.715,-782.111 357.218,-781.975 357.237,-781.476 357.257,-780.976 360.754,-781.112 357.36,-778.328 364.232,-781.748 364.232,-781.748"/>
</g>
<!-- Mage_Captcha_Model_Config_Font -->
<g id="node9" class="node"><title>Mage_Captcha_Model_Config_Font</title>
<polygon fill="#dddddd" stroke="none" points="291,-630 37,-630 37,-594 291,-594 291,-630"/>
<text text-anchor="middle" x="164" y="-608.3" font-family="verdana" font-size="14.00">Mage_Captcha_Model_Config_Font</text>
</g>
<!-- Mage_Captcha_Model_Config_Font&#45;&gt;Mage_Captcha_Helper_Data -->
<g id="edge8" class="edge"><title>Mage_Captcha_Model_Config_Font&#45;&gt;Mage_Captcha_Helper_Data</title>
<path fill="none" stroke="#dddddd" stroke-dasharray="1,5" d="M291.163,-612C330.946,-612 374.593,-612 413.294,-612"/>
<polygon fill="#dddddd" stroke="#dddddd" points="420.461,-612 413.461,-615.15 416.961,-612 413.461,-612 413.461,-612 413.461,-612 416.961,-612 413.461,-608.85 420.461,-612 420.461,-612"/>
</g>
<!-- Mage_Captcha_Model_Config_Mode -->
<g id="node10" class="node"><title>Mage_Captcha_Model_Config_Mode</title>
<polygon fill="#dddddd" stroke="none" points="294,-576 34,-576 34,-540 294,-540 294,-576"/>
<text text-anchor="middle" x="164" y="-554.3" font-family="verdana" font-size="14.00">Mage_Captcha_Model_Config_Mode</text>
</g>
<!-- Mage_Captcha_Model_Config_Mode&#45;&gt;Mage_Captcha_Helper_Data -->
<g id="edge9" class="edge"><title>Mage_Captcha_Model_Config_Mode&#45;&gt;Mage_Captcha_Helper_Data</title>
<path fill="none" stroke="#dddddd" stroke-dasharray="1,5" d="M285.125,-576.019C326.489,-582.223 372.614,-589.142 413.28,-595.242"/>
<polygon fill="#dddddd" stroke="#dddddd" points="420.281,-596.292 412.891,-598.369 416.82,-595.773 413.358,-595.254 413.358,-595.254 413.358,-595.254 416.82,-595.773 413.826,-592.139 420.281,-596.292 420.281,-596.292"/>
</g>
<!-- Mage_Captcha_Model_Zend -->
<g id="node11" class="node"><title>Mage_Captcha_Model_Zend</title>
<polygon fill="#dddddd" stroke="none" points="268,-522 60,-522 60,-486 268,-486 268,-522"/>
<text text-anchor="middle" x="164" y="-500.3" font-family="verdana" font-size="14.00">Mage_Captcha_Model_Zend</text>
</g>
<!-- Mage_Captcha_Model_Zend&#45;&gt;Mage_Captcha_Helper_Data -->
<g id="edge11" class="edge"><title>Mage_Captcha_Model_Zend&#45;&gt;Mage_Captcha_Helper_Data</title>
<path fill="none" stroke="#dddddd" stroke-dasharray="1,5" d="M268.405,-508.161C289.313,-512.465 310.29,-519.561 328,-531 352.23,-546.65 339.786,-569.326 364,-585 378.808,-594.585 395.932,-601.106 413.37,-605.485"/>
<polygon fill="#dddddd" stroke="#dddddd" points="420.327,-607.118 412.792,-608.585 416.919,-606.318 413.512,-605.518 413.512,-605.518 413.512,-605.518 416.919,-606.318 414.232,-602.451 420.327,-607.118 420.327,-607.118"/>
</g>
<!-- Mage_Captcha_Model_Interface -->
<g id="node12" class="node"><title>Mage_Captcha_Model_Interface</title>
<polygon fill="#dddddd" stroke="none" points="643,-522 409,-522 409,-486 643,-486 643,-522"/>
<text text-anchor="middle" x="526" y="-500.3" font-family="verdana" font-size="14.00">Mage_Captcha_Model_Interface</text>
</g>
<!-- Mage_Captcha_Model_Zend&#45;&gt;Mage_Captcha_Model_Interface -->
<g id="edge10" class="edge"><title>Mage_Captcha_Model_Zend&#45;&gt;Mage_Captcha_Model_Interface</title>
<path fill="none" stroke="#dddddd" stroke-width="2" d="M268.162,-504C309.788,-504 358.164,-504 401.633,-504"/>
<polygon fill="#dddddd" stroke="#dddddd" stroke-width="2" points="408.845,-504 401.845,-507.15 405.345,-504.5 401.845,-504.5 401.845,-504 401.845,-503.5 405.345,-503.5 401.845,-500.85 408.845,-504 408.845,-504"/>
</g>
<!-- Mage_Captcha_Model_Resource_Log -->
<g id="node13" class="node"><title>Mage_Captcha_Model_Resource_Log</title>
<polygon fill="#dddddd" stroke="none" points="659.5,-468 392.5,-468 392.5,-432 659.5,-432 659.5,-468"/>
<text text-anchor="middle" x="526" y="-446.3" font-family="verdana" font-size="14.00">Mage_Captcha_Model_Resource_Log</text>
</g>
<!-- Mage_Captcha_Model_Zend&#45;&gt;Mage_Captcha_Model_Resource_Log -->
<g id="edge12" class="edge"><title>Mage_Captcha_Model_Zend&#45;&gt;Mage_Captcha_Model_Resource_Log</title>
<path fill="none" stroke="#dddddd" stroke-dasharray="5,2" d="M268.162,-488.526C308.607,-482.459 355.425,-475.436 397.922,-469.062"/>
<polygon fill="#dddddd" stroke="#dddddd" points="404.978,-468.003 398.522,-472.157 401.516,-468.523 398.055,-469.042 398.055,-469.042 398.055,-469.042 401.516,-468.523 397.588,-465.927 404.978,-468.003 404.978,-468.003"/>
</g>
<!-- Mage_Admin_Model_Session -->
<g id="node14" class="node"><title>Mage_Admin_Model_Session</title>
<polygon fill="#dddddd" stroke="none" points="632,-576 420,-576 420,-540 632,-540 632,-576"/>
<text text-anchor="middle" x="526" y="-554.3" font-family="verdana" font-size="14.00">Mage_Admin_Model_Session</text>
</g>
<!-- Mage_Captcha_Model_Zend&#45;&gt;Mage_Admin_Model_Session -->
<g id="edge13" class="edge"><title>Mage_Captcha_Model_Zend&#45;&gt;Mage_Admin_Model_Session</title>
<path fill="none" stroke="#dddddd" stroke-dasharray="5,2" d="M268.162,-519.474C313.418,-526.263 366.653,-534.248 412.886,-541.183"/>
<polygon fill="#dddddd" stroke="#dddddd" points="419.949,-542.242 412.559,-544.319 416.488,-541.723 413.026,-541.204 413.026,-541.204 413.026,-541.204 416.488,-541.723 413.494,-538.089 419.949,-542.242 419.949,-542.242"/>
</g>
<!-- Mage_Customer_Model_Session -->
<g id="node15" class="node"><title>Mage_Customer_Model_Session</title>
<polygon fill="#dddddd" stroke="none" points="643.5,-414 408.5,-414 408.5,-378 643.5,-378 643.5,-414"/>
<text text-anchor="middle" x="526" y="-392.3" font-family="verdana" font-size="14.00">Mage_Customer_Model_Session</text>
</g>
<!-- Mage_Captcha_Model_Zend&#45;&gt;Mage_Customer_Model_Session -->
<g id="edge14" class="edge"><title>Mage_Captcha_Model_Zend&#45;&gt;Mage_Customer_Model_Session</title>
<path fill="none" stroke="#dddddd" stroke-dasharray="5,2" d="M202.274,-485.926C241.617,-467.545 305.865,-439.488 364,-423 375.963,-419.607 388.555,-416.584 401.208,-413.904"/>
<polygon fill="#dddddd" stroke="#dddddd" points="408.24,-412.45 402.023,-416.952 404.813,-413.159 401.385,-413.867 401.385,-413.867 401.385,-413.867 404.813,-413.159 400.747,-410.783 408.24,-412.45 408.24,-412.45"/>
</g>
<!-- Mage_Core_Model_Resource_Db_Abstract -->
<g id="node16" class="node"><title>Mage_Core_Model_Resource_Db_Abstract</title>
<polygon fill="#dddddd" stroke="none" points="1027.5,-522 724.5,-522 724.5,-486 1027.5,-486 1027.5,-522"/>
<text text-anchor="middle" x="876" y="-500.3" font-family="verdana" font-size="14.00">Mage_Core_Model_Resource_Db_Abstract</text>
</g>
<!-- Mage_Captcha_Model_Resource_Log&#45;&gt;Mage_Core_Model_Resource_Db_Abstract -->
<g id="edge15" class="edge"><title>Mage_Captcha_Model_Resource_Log&#45;&gt;Mage_Core_Model_Resource_Db_Abstract</title>
<path fill="none" stroke="#dddddd" stroke-width="2" d="M643.363,-468.056C678.188,-473.46 716.486,-479.403 751.739,-484.873"/>
<polygon fill="#dddddd" stroke="#dddddd" stroke-width="2" points="758.747,-485.961 751.347,-488 755.212,-485.918 751.753,-485.381 751.83,-484.887 751.906,-484.393 755.365,-484.93 752.313,-481.775 758.747,-485.961 758.747,-485.961"/>
</g>
<!-- Mage_Core_Model_Date -->
<g id="node17" class="node"><title>Mage_Core_Model_Date</title>
<polygon fill="#dddddd" stroke="none" points="967,-468 785,-468 785,-432 967,-432 967,-468"/>
<text text-anchor="middle" x="876" y="-446.3" font-family="verdana" font-size="14.00">Mage_Core_Model_Date</text>
</g>
<!-- Mage_Captcha_Model_Resource_Log&#45;&gt;Mage_Core_Model_Date -->
<g id="edge16" class="edge"><title>Mage_Captcha_Model_Resource_Log&#45;&gt;Mage_Core_Model_Date</title>
<path fill="none" stroke="#dddddd" stroke-dasharray="5,2" d="M659.557,-450C698.813,-450 741.057,-450 777.649,-450"/>
<polygon fill="#dddddd" stroke="#dddddd" points="784.89,-450 777.89,-453.15 781.39,-450 777.89,-450 777.89,-450 777.89,-450 781.39,-450 777.89,-446.85 784.89,-450 784.89,-450"/>
</g>
<!-- Mage_Core_Helper_Http -->
<g id="node18" class="node"><title>Mage_Core_Helper_Http</title>
<polygon fill="#dddddd" stroke="none" points="968,-414 784,-414 784,-378 968,-378 968,-414"/>
<text text-anchor="middle" x="876" y="-392.3" font-family="verdana" font-size="14.00">Mage_Core_Helper_Http</text>
</g>
<!-- Mage_Captcha_Model_Resource_Log&#45;&gt;Mage_Core_Helper_Http -->
<g id="edge17" class="edge"><title>Mage_Captcha_Model_Resource_Log&#45;&gt;Mage_Core_Helper_Http</title>
<path fill="none" stroke="#dddddd" stroke-dasharray="1,5" d="M643.363,-431.944C686.603,-425.234 735.198,-417.693 776.669,-411.258"/>
<polygon fill="#dddddd" stroke="#dddddd" points="783.793,-410.153 777.359,-414.339 780.335,-410.69 776.876,-411.226 776.876,-411.226 776.876,-411.226 780.335,-410.69 776.393,-408.113 783.793,-410.153 783.793,-410.153"/>
</g>
<!-- Mage_Captcha_Model_Observer -->
<g id="node19" class="node"><title>Mage_Captcha_Model_Observer</title>
<polygon fill="#dddddd" stroke="none" points="282,-333 46,-333 46,-297 282,-297 282,-333"/>
<text text-anchor="middle" x="164" y="-311.3" font-family="verdana" font-size="14.00">Mage_Captcha_Model_Observer</text>
</g>
<!-- Mage_Captcha_Model_Observer&#45;&gt;Mage_Captcha_Helper_Data -->
<g id="edge20" class="edge"><title>Mage_Captcha_Model_Observer&#45;&gt;Mage_Captcha_Helper_Data</title>
<path fill="none" stroke="#dddddd" stroke-dasharray="1,5" d="M189.56,-333.219C224.942,-360.672 290.15,-415.968 328,-477 354.666,-519.999 325.551,-552.112 364,-585 377.975,-596.954 395.209,-604.582 413.152,-609.31"/>
<polygon fill="#dddddd" stroke="#dddddd" points="420.329,-611.043 412.785,-612.462 416.927,-610.222 413.525,-609.4 413.525,-609.4 413.525,-609.4 416.927,-610.222 414.264,-606.338 420.329,-611.043 420.329,-611.043"/>
</g>
<!-- Mage_Captcha_Model_Observer&#45;&gt;Mage_Captcha_Model_Resource_Log -->
<g id="edge25" class="edge"><title>Mage_Captcha_Model_Observer&#45;&gt;Mage_Captcha_Model_Resource_Log</title>
<path fill="none" stroke="#dddddd" stroke-dasharray="5,2" d="M191.362,-333.034C228.269,-357.388 298.216,-400.343 364,-423 371.641,-425.632 379.578,-428.012 387.649,-430.165"/>
<polygon fill="#dddddd" stroke="#dddddd" points="394.457,-431.92 386.892,-433.223 391.068,-431.046 387.679,-430.172 387.679,-430.172 387.679,-430.172 391.068,-431.046 388.465,-427.122 394.457,-431.92 394.457,-431.92"/>
</g>
<!-- Mage_Captcha_Model_Observer&#45;&gt;Mage_Customer_Model_Session -->
<g id="edge23" class="edge"><title>Mage_Captcha_Model_Observer&#45;&gt;Mage_Customer_Model_Session</title>
<path fill="none" stroke="#dddddd" stroke-dasharray="5,2" d="M225.582,-333.112C264.814,-344.425 317.141,-358.739 364,-369 376.264,-371.685 389.104,-374.25 401.954,-376.655"/>
<polygon fill="#dddddd" stroke="#dddddd" points="409.09,-377.974 401.634,-379.799 405.649,-377.338 402.207,-376.702 402.207,-376.702 402.207,-376.702 405.649,-377.338 402.78,-373.604 409.09,-377.974 409.09,-377.974"/>
</g>
<!-- Mage_Core_Controller_Varien_Action -->
<g id="node20" class="node"><title>Mage_Core_Controller_Varien_Action</title>
<polygon fill="#dddddd" stroke="none" points="662,-144 390,-144 390,-108 662,-108 662,-144"/>
<text text-anchor="middle" x="526" y="-122.3" font-family="verdana" font-size="14.00">Mage_Core_Controller_Varien_Action</text>
</g>
<!-- Mage_Captcha_Model_Observer&#45;&gt;Mage_Core_Controller_Varien_Action -->
<g id="edge18" class="edge"><title>Mage_Captcha_Model_Observer&#45;&gt;Mage_Core_Controller_Varien_Action</title>
<path fill="none" stroke="#dddddd" stroke-dasharray="1,5" d="M209.932,-296.996C245.437,-280.992 294.435,-254.749 328,-220 351.486,-195.686 336.526,-172.695 364,-153 369.96,-148.727 376.36,-145.043 383.051,-141.871"/>
<polygon fill="#dddddd" stroke="#dddddd" points="389.832,-138.867 384.708,-144.582 386.632,-140.284 383.432,-141.702 383.432,-141.702 383.432,-141.702 386.632,-140.284 382.156,-138.822 389.832,-138.867 389.832,-138.867"/>
</g>
<!-- Mage_Checkout_Model_Type_Onepage -->
<g id="node21" class="node"><title>Mage_Checkout_Model_Type_Onepage</title>
<polygon fill="#dddddd" stroke="none" points="666.5,-360 385.5,-360 385.5,-324 666.5,-324 666.5,-360"/>
<text text-anchor="middle" x="526" y="-338.3" font-family="verdana" font-size="14.00">Mage_Checkout_Model_Type_Onepage</text>
</g>
<!-- Mage_Captcha_Model_Observer&#45;&gt;Mage_Checkout_Model_Type_Onepage -->
<g id="edge19" class="edge"><title>Mage_Captcha_Model_Observer&#45;&gt;Mage_Checkout_Model_Type_Onepage</title>
<path fill="none" stroke="#dddddd" stroke-dasharray="5,2" d="M282.379,-323.803C312.901,-326.093 346.166,-328.587 378.005,-330.975"/>
<polygon fill="#dddddd" stroke="#dddddd" points="385.203,-331.515 377.987,-334.133 381.712,-331.253 378.222,-330.992 378.222,-330.992 378.222,-330.992 381.712,-331.253 378.458,-327.85 385.203,-331.515 385.203,-331.515"/>
</g>
<!-- Mage_Customer_Helper_Data -->
<g id="node22" class="node"><title>Mage_Customer_Helper_Data</title>
<polygon fill="#dddddd" stroke="none" points="636.5,-306 415.5,-306 415.5,-270 636.5,-270 636.5,-306"/>
<text text-anchor="middle" x="526" y="-284.3" font-family="verdana" font-size="14.00">Mage_Customer_Helper_Data</text>
</g>
<!-- Mage_Captcha_Model_Observer&#45;&gt;Mage_Customer_Helper_Data -->
<g id="edge21" class="edge"><title>Mage_Captcha_Model_Observer&#45;&gt;Mage_Customer_Helper_Data</title>
<path fill="none" stroke="#dddddd" stroke-dasharray="1,5" d="M282.379,-306.197C322.737,-303.17 367.893,-299.783 408.205,-296.76"/>
<polygon fill="#dddddd" stroke="#dddddd" points="415.411,-296.219 408.667,-299.884 411.921,-296.481 408.431,-296.743 408.431,-296.743 408.431,-296.743 411.921,-296.481 408.195,-293.602 415.411,-296.219 415.411,-296.219"/>
</g>
<!-- Mage_Core_Helper_Data -->
<g id="node23" class="node"><title>Mage_Core_Helper_Data</title>
<polygon fill="#dddddd" stroke="none" points="619.5,-252 432.5,-252 432.5,-216 619.5,-216 619.5,-252"/>
<text text-anchor="middle" x="526" y="-230.3" font-family="verdana" font-size="14.00">Mage_Core_Helper_Data</text>
</g>
<!-- Mage_Captcha_Model_Observer&#45;&gt;Mage_Core_Helper_Data -->
<g id="edge22" class="edge"><title>Mage_Captcha_Model_Observer&#45;&gt;Mage_Core_Helper_Data</title>
<path fill="none" stroke="#dddddd" stroke-dasharray="1,5" d="M225.582,-296.888C264.814,-285.575 317.141,-271.261 364,-261 383.689,-256.689 404.863,-252.689 425.178,-249.161"/>
<polygon fill="#dddddd" stroke="#dddddd" points="432.324,-247.933 425.959,-252.223 428.875,-248.526 425.425,-249.119 425.425,-249.119 425.425,-249.119 428.875,-248.526 424.892,-246.014 432.324,-247.933 432.324,-247.933"/>
</g>
<!-- Mage_Adminhtml_Model_Session -->
<g id="node24" class="node"><title>Mage_Adminhtml_Model_Session</title>
<polygon fill="#dddddd" stroke="none" points="647.5,-198 404.5,-198 404.5,-162 647.5,-162 647.5,-198"/>
<text text-anchor="middle" x="526" y="-176.3" font-family="verdana" font-size="14.00">Mage_Adminhtml_Model_Session</text>
</g>
<!-- Mage_Captcha_Model_Observer&#45;&gt;Mage_Adminhtml_Model_Session -->
<g id="edge24" class="edge"><title>Mage_Captcha_Model_Observer&#45;&gt;Mage_Adminhtml_Model_Session</title>
<path fill="none" stroke="#dddddd" stroke-dasharray="5,2" d="M191.362,-296.966C228.269,-272.612 298.216,-229.657 364,-207 374.652,-203.331 385.877,-200.151 397.242,-197.396"/>
<polygon fill="#dddddd" stroke="#dddddd" points="404.332,-195.735 398.235,-200.398 400.924,-196.533 397.516,-197.332 397.516,-197.332 397.516,-197.332 400.924,-196.533 396.798,-194.265 404.332,-195.735 404.332,-195.735"/>
</g>
<!-- Mage_Captcha_RefreshController -->
<g id="node25" class="node"><title>Mage_Captcha_RefreshController</title>
<polygon fill="#dddddd" stroke="none" points="286.5,-211 41.5,-211 41.5,-175 286.5,-175 286.5,-211"/>
<text text-anchor="middle" x="164" y="-189.3" font-family="verdana" font-size="14.00">Mage_Captcha_RefreshController</text>
</g>
<!-- Mage_Captcha_RefreshController&#45;&gt;Mage_Captcha_Helper_Data -->
<g id="edge27" class="edge"><title>Mage_Captcha_RefreshController&#45;&gt;Mage_Captcha_Helper_Data</title>
<path fill="none" stroke="#dddddd" stroke-dasharray="1,5" d="M221.533,-211.036C258.062,-225.761 303.249,-250.374 328,-288 401.076,-399.085 272.143,-488.863 364,-585 377.253,-598.87 394.753,-607.293 413.327,-612.18"/>
<polygon fill="#dddddd" stroke="#dddddd" points="420.214,-613.824 412.673,-615.262 416.809,-613.011 413.405,-612.199 413.405,-612.199 413.405,-612.199 416.809,-613.011 414.136,-609.135 420.214,-613.824 420.214,-613.824"/>
</g>
<!-- Mage_Core_Controller_Front_Action -->
<g id="node26" class="node"><title>Mage_Core_Controller_Front_Action</title>
<polygon fill="#dddddd" stroke="none" points="658.5,-90 393.5,-90 393.5,-54 658.5,-54 658.5,-90"/>
<text text-anchor="middle" x="526" y="-68.3" font-family="verdana" font-size="14.00">Mage_Core_Controller_Front_Action</text>
</g>
<!-- Mage_Captcha_RefreshController&#45;&gt;Mage_Core_Controller_Front_Action -->
<g id="edge26" class="edge"><title>Mage_Captcha_RefreshController&#45;&gt;Mage_Core_Controller_Front_Action</title>
<path fill="none" stroke="#dddddd" stroke-width="2" d="M196.3,-174.88C234.601,-153.504 302.018,-118.427 364,-99 372.513,-96.3319 381.366,-93.9118 390.347,-91.7189"/>
<polygon fill="#dddddd" stroke="#dddddd" stroke-width="2" points="397.237,-90.086 391.152,-94.7655 393.947,-91.3798 390.541,-92.187 390.426,-91.7004 390.311,-91.2139 393.716,-90.4067 389.699,-88.6354 397.237,-90.086 397.237,-90.086"/>
</g>
<!-- Mage_Captcha_Adminhtml_RefreshController -->
<g id="node27" class="node"><title>Mage_Captcha_Adminhtml_RefreshController</title>
<polygon fill="#dddddd" stroke="none" points="328,-76 0,-76 0,-40 328,-40 328,-76"/>
<text text-anchor="middle" x="164" y="-54.3" font-family="verdana" font-size="14.00">Mage_Captcha_Adminhtml_RefreshController</text>
</g>
<!-- Mage_Captcha_Adminhtml_RefreshController&#45;&gt;Mage_Captcha_Helper_Data -->
<g id="edge29" class="edge"><title>Mage_Captcha_Adminhtml_RefreshController&#45;&gt;Mage_Captcha_Helper_Data</title>
<path fill="none" stroke="#dddddd" stroke-dasharray="1,5" d="M213.093,-76.0344C251.201,-93.0543 302.183,-122.504 328,-166 375.701,-246.364 300.629,-516.314 364,-585 377.094,-599.192 394.622,-607.743 413.297,-612.649"/>
<polygon fill="#dddddd" stroke="#dddddd" points="420.223,-614.295 412.684,-615.741 416.818,-613.486 413.413,-612.676 413.413,-612.676 413.413,-612.676 416.818,-613.486 414.141,-609.612 420.223,-614.295 420.223,-614.295"/>
</g>
<!-- Mage_Adminhtml_Controller_Action -->
<g id="node28" class="node"><title>Mage_Adminhtml_Controller_Action</title>
<polygon fill="#dddddd" stroke="none" points="657.5,-36 394.5,-36 394.5,-0 657.5,-0 657.5,-36"/>
<text text-anchor="middle" x="526" y="-14.3" font-family="verdana" font-size="14.00">Mage_Adminhtml_Controller_Action</text>
</g>
<!-- Mage_Captcha_Adminhtml_RefreshController&#45;&gt;Mage_Adminhtml_Controller_Action -->
<g id="edge28" class="edge"><title>Mage_Captcha_Adminhtml_RefreshController&#45;&gt;Mage_Adminhtml_Controller_Action</title>
<path fill="none" stroke="#dddddd" stroke-width="2" d="M327.097,-39.9893C347.126,-37.7638 367.453,-35.5052 387.074,-33.3251"/>
<polygon fill="#dddddd" stroke="#dddddd" stroke-width="2" points="394.269,-32.5257 387.66,-36.4295 390.846,-33.4092 387.367,-33.7957 387.312,-33.2988 387.257,-32.8018 390.735,-32.4153 386.964,-30.168 394.269,-32.5257 394.269,-32.5257"/>
</g>
</g>
</svg>
