<?xml version="1.0" encoding="UTF-8" standalone="no"?>
<!DOCTYPE svg PUBLIC "-//W3C//DTD SVG 1.1//EN"
 "http://www.w3.org/Graphics/SVG/1.1/DTD/svg11.dtd">
<!-- Generated by graphviz version 2.36.0 (20140111.2315)
 -->
<!-- Title: callgraph Pages: 1 -->
<svg width="1140pt" height="1244pt"
 viewBox="0.00 0.00 1140.00 1243.95" xmlns="http://www.w3.org/2000/svg" xmlns:xlink="http://www.w3.org/1999/xlink">
<g id="graph0" class="graph" transform="scale(1 1) rotate(0) translate(4 1239.95)">
<title>callgraph</title>
<polygon fill="white" stroke="none" points="-4,4 -4,-1239.95 1136,-1239.95 1136,4 -4,4"/>
<g id="clust1" class="cluster"><title>cluster_Mage_Admin</title>
<polygon fill="#eeeeee" stroke="#eeeeee" points="464,-36.9511 464,-111.951 692,-111.951 692,-36.9511 464,-36.9511"/>
<text text-anchor="middle" x="578" y="-96.7511" font-family="Verdana" font-size="14.00">Mage_Admin</text>
</g>
<g id="clust2" class="cluster"><title>cluster_Mage_Adminhtml</title>
<polygon fill="#eeeeee" stroke="#eeeeee" points="372,-475.951 372,-658.951 784,-658.951 784,-475.951 372,-475.951"/>
<text text-anchor="middle" x="578" y="-643.751" font-family="Verdana" font-size="14.00">Mage_Adminhtml</text>
</g>
<g id="clust3" class="cluster"><title>cluster_Mage_Captcha</title>
<polygon fill="#eeeeee" stroke="#eeeeee" points="8,-666.951 8,-1227.95 1055,-1227.95 1055,-666.951 8,-666.951"/>
<text text-anchor="middle" x="531.5" y="-1212.75" font-family="Verdana" font-size="14.00">Mage_Captcha</text>
</g>
<g id="clust4" class="cluster"><title>cluster_Mage_Checkout</title>
<polygon fill="#eeeeee" stroke="#eeeeee" points="429,-324.951 429,-399.951 727,-399.951 727,-324.951 429,-324.951"/>
<text text-anchor="middle" x="578" y="-384.751" font-family="Verdana" font-size="14.00">Mage_Checkout</text>
</g>
<g id="clust5" class="cluster"><title>cluster_Mage_Core</title>
<polygon fill="#eeeeee" stroke="#eeeeee" points="804,-151.951 804,-658.951 1124,-658.951 1124,-151.951 804,-151.951"/>
<text text-anchor="middle" x="964" y="-643.751" font-family="Verdana" font-size="14.00">Mage_Core</text>
</g>
<g id="clust6" class="cluster"><title>cluster_Mage_Customer</title>
<polygon fill="#eeeeee" stroke="#eeeeee" points="452,-119.951 452,-248.951 704,-248.951 704,-119.951 452,-119.951"/>
<text text-anchor="middle" x="578" y="-233.751" font-family="Verdana" font-size="14.00">Mage_Customer</text>
</g>
<!-- Mage_Admin_Model_Session -->
<g id="node1" class="node"><title>Mage_Admin_Model_Session</title>
<polygon fill="#dddddd" stroke="none" points="684,-80.9511 472,-80.9511 472,-44.9511 684,-44.9511 684,-80.9511"/>
<text text-anchor="middle" x="578" y="-59.2511" font-family="verdana" font-size="14.00">Mage_Admin_Model_Session</text>
</g>
<!-- Mage_Adminhtml_Controller_Action -->
<g id="node2" class="node"><title>Mage_Adminhtml_Controller_Action</title>
<polygon fill="#dddddd" stroke="none" points="709.5,-627.951 446.5,-627.951 446.5,-591.951 709.5,-591.951 709.5,-627.951"/>
<text text-anchor="middle" x="578" y="-606.251" font-family="verdana" font-size="14.00">Mage_Adminhtml_Controller_Action</text>
</g>
<!-- Mage_Adminhtml_Model_Session -->
<g id="node3" class="node"><title>Mage_Adminhtml_Model_Session</title>
<polygon fill="#dddddd" stroke="none" points="699.5,-573.951 456.5,-573.951 456.5,-537.951 699.5,-537.951 699.5,-573.951"/>
<text text-anchor="middle" x="578" y="-552.251" font-family="verdana" font-size="14.00">Mage_Adminhtml_Model_Session</text>
</g>
<!-- Mage_Adminhtml_Model_System_Config_Source_Yesno -->
<g id="node4" class="node"><title>Mage_Adminhtml_Model_System_Config_Source_Yesno</title>
<polygon fill="#dddddd" stroke="none" points="775.5,-519.951 380.5,-519.951 380.5,-483.951 775.5,-483.951 775.5,-519.951"/>
<text text-anchor="middle" x="578" y="-498.251" font-family="verdana" font-size="14.00">Mage_Adminhtml_Model_System_Config_Source_Yesno</text>
</g>
<!-- Mage_Captcha_Adminhtml_RefreshController -->
<g id="node5" class="node"><title>Mage_Captcha_Adminhtml_RefreshController</title>
<polygon fill="#dddddd" stroke="none" points="344,-980.951 16,-980.951 16,-944.951 344,-944.951 344,-980.951"/>
<text text-anchor="middle" x="180" y="-959.251" font-family="verdana" font-size="14.00">Mage_Captcha_Adminhtml_RefreshController</text>
</g>
<!-- Mage_Captcha_Adminhtml_RefreshController&#45;&gt;Mage_Adminhtml_Controller_Action -->
<g id="edge28" class="edge"><title>Mage_Captcha_Adminhtml_RefreshController&#45;&gt;Mage_Adminhtml_Controller_Action</title>
<path fill="none" stroke="#dddddd" stroke-width="2" d="M334.218,-944.814C337.681,-942.137 340.955,-939.191 344,-935.951 385.767,-891.513 332.248,-709.2 372,-662.951 389.542,-642.542 413.816,-629.472 439.536,-621.212"/>
<polygon fill="#dddddd" stroke="#dddddd" stroke-width="2" points="446.462,-619.111 440.678,-624.157 443.258,-620.605 439.909,-621.621 439.764,-621.143 439.619,-620.664 442.968,-619.648 438.849,-618.128 446.462,-619.111 446.462,-619.111"/>
</g>
<!-- Mage_Captcha_Helper_Data -->
<g id="node8" class="node"><title>Mage_Captcha_Helper_Data</title>
<polygon fill="#dddddd" stroke="none" points="683.5,-872.951 472.5,-872.951 472.5,-836.951 683.5,-836.951 683.5,-872.951"/>
<text text-anchor="middle" x="578" y="-851.251" font-family="verdana" font-size="14.00">Mage_Captcha_Helper_Data</text>
</g>
<!-- Mage_Captcha_Adminhtml_RefreshController&#45;&gt;Mage_Captcha_Helper_Data -->
<g id="edge29" class="edge"><title>Mage_Captcha_Adminhtml_RefreshController&#45;&gt;Mage_Captcha_Helper_Data</title>
<path fill="none" stroke="#dddddd" stroke-dasharray="1,5" d="M303.851,-944.913C317.467,-942.229 331.074,-939.243 344,-935.951 407.685,-919.733 478.741,-893.854 525.448,-875.723"/>
<polygon fill="#dddddd" stroke="#dddddd" points="532.159,-873.106 526.782,-878.584 528.898,-874.378 525.637,-875.649 525.637,-875.649 525.637,-875.649 528.898,-874.378 524.493,-872.715 532.159,-873.106 532.159,-873.106"/>
</g>
<!-- Mage_Captcha_Block_Captcha -->
<g id="node6" class="node"><title>Mage_Captcha_Block_Captcha</title>
<polygon fill="#dddddd" stroke="none" points="292.5,-926.951 67.5,-926.951 67.5,-890.951 292.5,-890.951 292.5,-926.951"/>
<text text-anchor="middle" x="180" y="-905.251" font-family="verdana" font-size="14.00">Mage_Captcha_Block_Captcha</text>
</g>
<!-- Mage_Captcha_Block_Captcha&#45;&gt;Mage_Captcha_Helper_Data -->
<g id="edge2" class="edge"><title>Mage_Captcha_Block_Captcha&#45;&gt;Mage_Captcha_Helper_Data</title>
<path fill="none" stroke="#dddddd" stroke-dasharray="1,5" d="M292.626,-893.729C346.587,-886.371 411.194,-877.561 465.181,-870.199"/>
<polygon fill="#dddddd" stroke="#dddddd" points="472.387,-869.217 465.877,-873.284 468.919,-869.689 465.451,-870.162 465.451,-870.162 465.451,-870.162 468.919,-869.689 465.025,-867.041 472.387,-869.217 472.387,-869.217"/>
</g>
<!-- Mage_Core_Block_Template -->
<g id="node21" class="node"><title>Mage_Core_Block_Template</title>
<polygon fill="#dddddd" stroke="none" points="1067.5,-357.951 860.5,-357.951 860.5,-321.951 1067.5,-321.951 1067.5,-357.951"/>
<text text-anchor="middle" x="964" y="-336.251" font-family="verdana" font-size="14.00">Mage_Core_Block_Template</text>
</g>
<!-- Mage_Captcha_Block_Captcha&#45;&gt;Mage_Core_Block_Template -->
<g id="edge1" class="edge"><title>Mage_Captcha_Block_Captcha&#45;&gt;Mage_Core_Block_Template</title>
<path fill="none" stroke="#dddddd" stroke-width="2" d="M292.723,-910.441C312.195,-905.567 330.499,-896.814 344,-881.951 405.404,-814.353 307.962,-537.059 372,-471.951 436.433,-406.443 713.053,-495.342 784,-436.951 808.983,-416.39 779.897,-388.537 804,-366.951 817.81,-354.583 835.113,-346.807 853.177,-342.074"/>
<polygon fill="#dddddd" stroke="#dddddd" stroke-width="2" points="860.405,-340.347 854.329,-345.038 857.117,-341.647 853.713,-342.461 853.597,-341.974 853.48,-341.488 856.885,-340.674 852.864,-338.911 860.405,-340.347 860.405,-340.347"/>
</g>
<!-- Mage_Captcha_Block_Captcha_Zend -->
<g id="node7" class="node"><title>Mage_Captcha_Block_Captcha_Zend</title>
<polygon fill="#dddddd" stroke="none" points="314,-872.951 46,-872.951 46,-836.951 314,-836.951 314,-872.951"/>
<text text-anchor="middle" x="180" y="-851.251" font-family="verdana" font-size="14.00">Mage_Captcha_Block_Captcha_Zend</text>
</g>
<!-- Mage_Captcha_Block_Captcha_Zend&#45;&gt;Mage_Captcha_Helper_Data -->
<g id="edge4" class="edge"><title>Mage_Captcha_Block_Captcha_Zend&#45;&gt;Mage_Captcha_Helper_Data</title>
<path fill="none" stroke="#dddddd" stroke-dasharray="1,5" d="M314.24,-854.951C363.272,-854.951 418.258,-854.951 465.208,-854.951"/>
<polygon fill="#dddddd" stroke="#dddddd" points="472.373,-854.951 465.373,-858.101 468.873,-854.951 465.373,-854.951 465.373,-854.951 465.373,-854.951 468.873,-854.951 465.373,-851.801 472.373,-854.951 472.373,-854.951"/>
</g>
<!-- Mage_Captcha_Block_Captcha_Zend&#45;&gt;Mage_Core_Block_Template -->
<g id="edge3" class="edge"><title>Mage_Captcha_Block_Captcha_Zend&#45;&gt;Mage_Core_Block_Template</title>
<path fill="none" stroke="#dddddd" stroke-width="2" d="M314.098,-849.08C325.333,-844.035 335.591,-837.169 344,-827.951 401.961,-764.413 311.784,-503.356 372,-441.951 436.375,-376.304 707.274,-454.616 784,-403.951 799.599,-393.65 788.805,-377.839 804,-366.951 818.567,-356.513 835.789,-349.607 853.428,-345.119"/>
<polygon fill="#dddddd" stroke="#dddddd" stroke-width="2" points="860.469,-343.457 854.38,-348.131 857.177,-344.748 853.771,-345.552 853.656,-345.065 853.541,-344.579 856.947,-343.774 852.932,-341.999 860.469,-343.457 860.469,-343.457"/>
</g>
<!-- Mage_Captcha_Model -->
<g id="node9" class="node"><title>Mage_Captcha_Model</title>
<polygon fill="#dddddd" stroke="none" points="1046.5,-872.951 881.5,-872.951 881.5,-836.951 1046.5,-836.951 1046.5,-872.951"/>
<text text-anchor="middle" x="964" y="-851.251" font-family="verdana" font-size="14.00">Mage_Captcha_Model</text>
</g>
<!-- Mage_Captcha_Helper_Data&#45;&gt;Mage_Captcha_Model -->
<g id="edge31" class="edge"><title>Mage_Captcha_Helper_Data&#45;&gt;Mage_Captcha_Model</title>
<path fill="none" stroke="#dddddd" stroke-dasharray="5,2" d="M683.676,-854.951C743.307,-854.951 817.217,-854.951 874.029,-854.951"/>
<polygon fill="#dddddd" stroke="#dddddd" points="881.222,-854.951 874.222,-858.101 877.722,-854.951 874.222,-854.951 874.222,-854.951 874.222,-854.951 877.722,-854.951 874.222,-851.801 881.222,-854.951 881.222,-854.951"/>
</g>
<!-- Mage_Core_Helper_Abstract -->
<g id="node24" class="node"><title>Mage_Core_Helper_Abstract</title>
<polygon fill="#dddddd" stroke="none" points="1069.5,-573.951 858.5,-573.951 858.5,-537.951 1069.5,-537.951 1069.5,-573.951"/>
<text text-anchor="middle" x="964" y="-552.251" font-family="verdana" font-size="14.00">Mage_Core_Helper_Abstract</text>
</g>
<!-- Mage_Captcha_Helper_Data&#45;&gt;Mage_Core_Helper_Abstract -->
<g id="edge30" class="edge"><title>Mage_Captcha_Helper_Data&#45;&gt;Mage_Core_Helper_Abstract</title>
<path fill="none" stroke="#dddddd" stroke-width="2" d="M683.567,-866.261C720.161,-864.384 758.448,-854.8 784,-827.951 821.658,-788.381 767.085,-623.216 804,-582.951 816.528,-569.286 833.212,-560.884 851.063,-555.936"/>
<polygon fill="#dddddd" stroke="#dddddd" stroke-width="2" points="858.227,-554.143 852.201,-558.898 854.953,-555.478 851.557,-556.327 851.436,-555.842 851.315,-555.357 854.71,-554.508 850.672,-552.786 858.227,-554.143 858.227,-554.143"/>
</g>
<!-- Mage_Captcha_Model_Config_Font -->
<g id="node10" class="node"><title>Mage_Captcha_Model_Config_Font</title>
<polygon fill="#dddddd" stroke="none" points="307,-1088.95 53,-1088.95 53,-1052.95 307,-1052.95 307,-1088.95"/>
<text text-anchor="middle" x="180" y="-1067.25" font-family="verdana" font-size="14.00">Mage_Captcha_Model_Config_Font</text>
</g>
<!-- Mage_Captcha_Model_Config_Font&#45;&gt;Mage_Captcha_Helper_Data -->
<g id="edge8" class="edge"><title>Mage_Captcha_Model_Config_Font&#45;&gt;Mage_Captcha_Helper_Data</title>
<path fill="none" stroke="#dddddd" stroke-dasharray="1,5" d="M307.101,-1056.84C319.841,-1053.42 332.36,-1049.19 344,-1043.95 434.007,-1003.45 518.428,-919.354 556.218,-878.391"/>
<polygon fill="#dddddd" stroke="#dddddd" points="561.022,-873.143 558.619,-880.433 558.659,-875.725 556.296,-878.306 556.296,-878.306 556.296,-878.306 558.659,-875.725 553.972,-876.179 561.022,-873.143 561.022,-873.143"/>
</g>
<!-- Mage_Captcha_Model_Config_Form_Abstract -->
<g id="node11" class="node"><title>Mage_Captcha_Model_Config_Form_Abstract</title>
<polygon fill="#dddddd" stroke="none" points="739.5,-1142.95 416.5,-1142.95 416.5,-1106.95 739.5,-1106.95 739.5,-1142.95"/>
<text text-anchor="middle" x="578" y="-1121.25" font-family="verdana" font-size="14.00">Mage_Captcha_Model_Config_Form_Abstract</text>
</g>
<!-- Mage_Core_Model_Config_Data -->
<g id="node27" class="node"><title>Mage_Core_Model_Config_Data</title>
<polygon fill="#dddddd" stroke="none" points="1080.5,-627.951 847.5,-627.951 847.5,-591.951 1080.5,-591.951 1080.5,-627.951"/>
<text text-anchor="middle" x="964" y="-606.251" font-family="verdana" font-size="14.00">Mage_Core_Model_Config_Data</text>
</g>
<!-- Mage_Captcha_Model_Config_Form_Abstract&#45;&gt;Mage_Core_Model_Config_Data -->
<g id="edge6" class="edge"><title>Mage_Captcha_Model_Config_Form_Abstract&#45;&gt;Mage_Core_Model_Config_Data</title>
<path fill="none" stroke="#dddddd" stroke-width="2" d="M601.64,-1106.77C645.773,-1069.81 742.598,-981 784,-881.951 802.847,-836.862 773.651,-701.254 804,-662.951 815.087,-648.958 829.993,-638.628 846.25,-631.009"/>
<polygon fill="#dddddd" stroke="#dddddd" stroke-width="2" points="852.79,-628.116 847.663,-633.829 849.792,-629.99 846.591,-631.406 846.388,-630.948 846.186,-630.491 849.387,-629.075 845.114,-628.068 852.79,-628.116 852.79,-628.116"/>
</g>
<!-- Mage_Captcha_Model_Config_Form_Backend -->
<g id="node12" class="node"><title>Mage_Captcha_Model_Config_Form_Backend</title>
<polygon fill="#dddddd" stroke="none" points="341.5,-1196.95 18.5,-1196.95 18.5,-1160.95 341.5,-1160.95 341.5,-1196.95"/>
<text text-anchor="middle" x="180" y="-1175.25" font-family="verdana" font-size="14.00">Mage_Captcha_Model_Config_Form_Backend</text>
</g>
<!-- Mage_Captcha_Model_Config_Form_Backend&#45;&gt;Mage_Captcha_Model_Config_Form_Abstract -->
<g id="edge5" class="edge"><title>Mage_Captcha_Model_Config_Form_Backend&#45;&gt;Mage_Captcha_Model_Config_Form_Abstract</title>
<path fill="none" stroke="#dddddd" stroke-width="2" d="M313.137,-1160.93C353.216,-1155.47 397.358,-1149.45 437.88,-1143.92"/>
<polygon fill="#dddddd" stroke="#dddddd" stroke-width="2" points="444.875,-1142.97 438.365,-1147.04 441.475,-1143.94 438.007,-1144.41 437.939,-1143.91 437.872,-1143.42 441.34,-1142.95 437.514,-1140.79 444.875,-1142.97 444.875,-1142.97"/>
</g>
<!-- Mage_Captcha_Model_Config_Form_Frontend -->
<g id="node13" class="node"><title>Mage_Captcha_Model_Config_Form_Frontend</title>
<polygon fill="#dddddd" stroke="none" points="344,-1142.95 16,-1142.95 16,-1106.95 344,-1106.95 344,-1142.95"/>
<text text-anchor="middle" x="180" y="-1121.25" font-family="verdana" font-size="14.00">Mage_Captcha_Model_Config_Form_Frontend</text>
</g>
<!-- Mage_Captcha_Model_Config_Form_Frontend&#45;&gt;Mage_Captcha_Model_Config_Form_Abstract -->
<g id="edge7" class="edge"><title>Mage_Captcha_Model_Config_Form_Frontend&#45;&gt;Mage_Captcha_Model_Config_Form_Abstract</title>
<path fill="none" stroke="#dddddd" stroke-width="2" d="M344.069,-1124.95C365.614,-1124.95 387.729,-1124.95 409.35,-1124.95"/>
<polygon fill="#dddddd" stroke="#dddddd" stroke-width="2" points="416.351,-1124.95 409.351,-1128.1 412.851,-1125.45 409.351,-1125.45 409.351,-1124.95 409.351,-1124.45 412.851,-1124.45 409.351,-1121.8 416.351,-1124.95 416.351,-1124.95"/>
</g>
<!-- Mage_Captcha_Model_Config_Mode -->
<g id="node14" class="node"><title>Mage_Captcha_Model_Config_Mode</title>
<polygon fill="#dddddd" stroke="none" points="310,-1034.95 50,-1034.95 50,-998.951 310,-998.951 310,-1034.95"/>
<text text-anchor="middle" x="180" y="-1013.25" font-family="verdana" font-size="14.00">Mage_Captcha_Model_Config_Mode</text>
</g>
<!-- Mage_Captcha_Model_Config_Mode&#45;&gt;Mage_Captcha_Helper_Data -->
<g id="edge9" class="edge"><title>Mage_Captcha_Model_Config_Mode&#45;&gt;Mage_Captcha_Helper_Data</title>
<path fill="none" stroke="#dddddd" stroke-dasharray="1,5" d="M310.241,-1000C321.797,-997.152 333.201,-993.828 344,-989.951 422.166,-961.892 504.046,-907.768 546.846,-877.265"/>
<polygon fill="#dddddd" stroke="#dddddd" points="552.622,-873.122 548.77,-879.762 549.778,-875.162 546.934,-877.202 546.934,-877.202 546.934,-877.202 549.778,-875.162 545.098,-874.642 552.622,-873.122 552.622,-873.122"/>
</g>
<!-- Mage_Captcha_Model_Interface -->
<g id="node15" class="node"><title>Mage_Captcha_Model_Interface</title>
<polygon fill="#dddddd" stroke="none" points="695,-818.951 461,-818.951 461,-782.951 695,-782.951 695,-818.951"/>
<text text-anchor="middle" x="578" y="-797.251" font-family="verdana" font-size="14.00">Mage_Captcha_Model_Interface</text>
</g>
<!-- Mage_Captcha_Model_Observer -->
<g id="node16" class="node"><title>Mage_Captcha_Model_Observer</title>
<polygon fill="#dddddd" stroke="none" points="298,-764.951 62,-764.951 62,-728.951 298,-728.951 298,-764.951"/>
<text text-anchor="middle" x="180" y="-743.251" font-family="verdana" font-size="14.00">Mage_Captcha_Model_Observer</text>
</g>
<!-- Mage_Captcha_Model_Observer&#45;&gt;Mage_Adminhtml_Model_Session -->
<g id="edge24" class="edge"><title>Mage_Captcha_Model_Observer&#45;&gt;Mage_Adminhtml_Model_Session</title>
<path fill="none" stroke="#dddddd" stroke-dasharray="5,2" d="M298.296,-745.07C315.287,-740.106 331.295,-732.189 344,-719.951 388.76,-676.837 326.53,-625.317 372,-582.951 392.944,-563.437 420.73,-553.461 449.065,-548.973"/>
<polygon fill="#dddddd" stroke="#dddddd" points="456.277,-547.948 449.79,-552.052 452.811,-548.44 449.346,-548.933 449.346,-548.933 449.346,-548.933 452.811,-548.44 448.903,-545.814 456.277,-547.948 456.277,-547.948"/>
</g>
<!-- Mage_Captcha_Model_Observer&#45;&gt;Mage_Captcha_Helper_Data -->
<g id="edge20" class="edge"><title>Mage_Captcha_Model_Observer&#45;&gt;Mage_Captcha_Helper_Data</title>
<path fill="none" stroke="#dddddd" stroke-dasharray="1,5" d="M298.115,-752.755C314.541,-757.323 330.424,-764.088 344,-773.951 365.872,-789.841 349.868,-812.426 372,-827.951 398.844,-846.781 432.63,-855.611 464.987,-859.18"/>
<polygon fill="#dddddd" stroke="#dddddd" points="472.301,-859.901 465.025,-862.349 468.817,-859.558 465.334,-859.214 465.334,-859.214 465.334,-859.214 468.817,-859.558 465.644,-856.079 472.301,-859.901 472.301,-859.901"/>
</g>
<!-- Mage_Captcha_Model_Resource_Log -->
<g id="node17" class="node"><title>Mage_Captcha_Model_Resource_Log</title>
<polygon fill="#dddddd" stroke="none" points="711.5,-710.951 444.5,-710.951 444.5,-674.951 711.5,-674.951 711.5,-710.951"/>
<text text-anchor="middle" x="578" y="-689.251" font-family="verdana" font-size="14.00">Mage_Captcha_Model_Resource_Log</text>
</g>
<!-- Mage_Captcha_Model_Observer&#45;&gt;Mage_Captcha_Model_Resource_Log -->
<g id="edge25" class="edge"><title>Mage_Captcha_Model_Observer&#45;&gt;Mage_Captcha_Model_Resource_Log</title>
<path fill="none" stroke="#dddddd" stroke-dasharray="5,2" d="M298.206,-730.969C342.026,-724.993 392.219,-718.149 437.831,-711.929"/>
<polygon fill="#dddddd" stroke="#dddddd" points="444.817,-710.976 438.307,-715.043 441.349,-711.449 437.882,-711.922 437.882,-711.922 437.882,-711.922 441.349,-711.449 437.456,-708.801 444.817,-710.976 444.817,-710.976"/>
</g>
<!-- Mage_Checkout_Model_Type_Onepage -->
<g id="node20" class="node"><title>Mage_Checkout_Model_Type_Onepage</title>
<polygon fill="#dddddd" stroke="none" points="718.5,-368.951 437.5,-368.951 437.5,-332.951 718.5,-332.951 718.5,-368.951"/>
<text text-anchor="middle" x="578" y="-347.251" font-family="verdana" font-size="14.00">Mage_Checkout_Model_Type_Onepage</text>
</g>
<!-- Mage_Captcha_Model_Observer&#45;&gt;Mage_Checkout_Model_Type_Onepage -->
<g id="edge19" class="edge"><title>Mage_Captcha_Model_Observer&#45;&gt;Mage_Checkout_Model_Type_Onepage</title>
<path fill="none" stroke="#dddddd" stroke-dasharray="5,2" d="M298.296,-746.65C315.605,-741.569 331.715,-733.204 344,-719.951 391.925,-668.249 326.418,-457.73 372,-403.951 387.414,-385.766 408.173,-373.393 430.58,-365.054"/>
<polygon fill="#dddddd" stroke="#dddddd" points="437.26,-362.701 431.705,-367.998 433.959,-363.864 430.658,-365.027 430.658,-365.027 430.658,-365.027 433.959,-363.864 429.611,-362.056 437.26,-362.701 437.26,-362.701"/>
</g>
<!-- Mage_Core_Controller_Varien_Action -->
<g id="node23" class="node"><title>Mage_Core_Controller_Varien_Action</title>
<polygon fill="#dddddd" stroke="none" points="1100,-303.951 828,-303.951 828,-267.951 1100,-267.951 1100,-303.951"/>
<text text-anchor="middle" x="964" y="-282.251" font-family="verdana" font-size="14.00">Mage_Core_Controller_Varien_Action</text>
</g>
<!-- Mage_Captcha_Model_Observer&#45;&gt;Mage_Core_Controller_Varien_Action -->
<g id="edge18" class="edge"><title>Mage_Captcha_Model_Observer&#45;&gt;Mage_Core_Controller_Varien_Action</title>
<path fill="none" stroke="#dddddd" stroke-dasharray="1,5" d="M298.092,-746.962C315.534,-741.872 331.74,-733.422 344,-719.951 403.826,-654.214 308.807,-383.458 372,-320.951 403.209,-290.08 655.951,-284.825 820.659,-284.745"/>
<polygon fill="#dddddd" stroke="#dddddd" points="827.945,-284.745 820.945,-287.895 824.445,-284.745 820.945,-284.745 820.945,-284.745 820.945,-284.745 824.445,-284.745 820.945,-281.595 827.945,-284.745 827.945,-284.745"/>
</g>
<!-- Mage_Core_Helper_Data -->
<g id="node25" class="node"><title>Mage_Core_Helper_Data</title>
<polygon fill="#dddddd" stroke="none" points="1057.5,-249.951 870.5,-249.951 870.5,-213.951 1057.5,-213.951 1057.5,-249.951"/>
<text text-anchor="middle" x="964" y="-228.251" font-family="verdana" font-size="14.00">Mage_Core_Helper_Data</text>
</g>
<!-- Mage_Captcha_Model_Observer&#45;&gt;Mage_Core_Helper_Data -->
<g id="edge22" class="edge"><title>Mage_Captcha_Model_Observer&#45;&gt;Mage_Core_Helper_Data</title>
<path fill="none" stroke="#dddddd" stroke-dasharray="1,5" d="M298.165,-747.028C315.598,-741.93 331.783,-733.461 344,-719.951 409.565,-647.445 303.022,-350.217 372,-280.951 404.377,-248.439 738.312,-257.181 784,-252.951 809.631,-250.578 837.273,-247.562 862.988,-244.56"/>
<polygon fill="#dddddd" stroke="#dddddd" points="870.186,-243.715 863.602,-247.66 866.71,-244.123 863.234,-244.531 863.234,-244.531 863.234,-244.531 866.71,-244.123 862.867,-241.403 870.186,-243.715 870.186,-243.715"/>
</g>
<!-- Mage_Customer_Helper_Data -->
<g id="node30" class="node"><title>Mage_Customer_Helper_Data</title>
<polygon fill="#dddddd" stroke="none" points="688.5,-163.951 467.5,-163.951 467.5,-127.951 688.5,-127.951 688.5,-163.951"/>
<text text-anchor="middle" x="578" y="-142.251" font-family="verdana" font-size="14.00">Mage_Customer_Helper_Data</text>
</g>
<!-- Mage_Captcha_Model_Observer&#45;&gt;Mage_Customer_Helper_Data -->
<g id="edge21" class="edge"><title>Mage_Captcha_Model_Observer&#45;&gt;Mage_Customer_Helper_Data</title>
<path fill="none" stroke="#dddddd" stroke-dasharray="1,5" d="M298.31,-747.157C315.726,-742.045 331.868,-733.538 344,-719.951 425.067,-629.163 289.437,-262.381 372,-172.951 394.506,-148.573 427.483,-138.278 460.435,-135.075"/>
<polygon fill="#dddddd" stroke="#dddddd" points="467.463,-134.497 460.745,-138.211 463.975,-134.784 460.487,-135.071 460.487,-135.071 460.487,-135.071 463.975,-134.784 460.228,-131.932 467.463,-134.497 467.463,-134.497"/>
</g>
<!-- Mage_Customer_Model_Session -->
<g id="node31" class="node"><title>Mage_Customer_Model_Session</title>
<polygon fill="#dddddd" stroke="none" points="695.5,-217.951 460.5,-217.951 460.5,-181.951 695.5,-181.951 695.5,-217.951"/>
<text text-anchor="middle" x="578" y="-196.251" font-family="verdana" font-size="14.00">Mage_Customer_Model_Session</text>
</g>
<!-- Mage_Captcha_Model_Observer&#45;&gt;Mage_Customer_Model_Session -->
<g id="edge23" class="edge"><title>Mage_Captcha_Model_Observer&#45;&gt;Mage_Customer_Model_Session</title>
<path fill="none" stroke="#dddddd" stroke-dasharray="5,2" d="M298.209,-747.067C315.637,-741.965 331.809,-733.484 344,-719.951 413.583,-642.706 305.916,-333.21 372,-252.951 392.312,-228.283 422.465,-214.256 453.435,-206.489"/>
<polygon fill="#dddddd" stroke="#dddddd" points="460.472,-204.832 454.381,-209.502 457.065,-205.634 453.659,-206.436 453.659,-206.436 453.659,-206.436 457.065,-205.634 452.937,-203.37 460.472,-204.832 460.472,-204.832"/>
</g>
<!-- Mage_Core_Helper_Http -->
<g id="node26" class="node"><title>Mage_Core_Helper_Http</title>
<polygon fill="#dddddd" stroke="none" points="1056,-465.951 872,-465.951 872,-429.951 1056,-429.951 1056,-465.951"/>
<text text-anchor="middle" x="964" y="-444.251" font-family="verdana" font-size="14.00">Mage_Core_Helper_Http</text>
</g>
<!-- Mage_Captcha_Model_Resource_Log&#45;&gt;Mage_Core_Helper_Http -->
<g id="edge17" class="edge"><title>Mage_Captcha_Model_Resource_Log&#45;&gt;Mage_Core_Helper_Http</title>
<path fill="none" stroke="#dddddd" stroke-dasharray="1,5" d="M711.629,-698.694C738.78,-693.516 764.867,-682.852 784,-662.951 842.236,-602.378 746.461,-536.187 804,-474.951 819.812,-458.124 841.937,-449.336 864.666,-445.154"/>
<polygon fill="#dddddd" stroke="#dddddd" points="871.734,-444.001 865.333,-448.237 868.279,-444.564 864.825,-445.128 864.825,-445.128 864.825,-445.128 868.279,-444.564 864.317,-442.02 871.734,-444.001 871.734,-444.001"/>
</g>
<!-- Mage_Core_Model_Date -->
<g id="node28" class="node"><title>Mage_Core_Model_Date</title>
<polygon fill="#dddddd" stroke="none" points="1055,-519.951 873,-519.951 873,-483.951 1055,-483.951 1055,-519.951"/>
<text text-anchor="middle" x="964" y="-498.251" font-family="verdana" font-size="14.00">Mage_Core_Model_Date</text>
</g>
<!-- Mage_Captcha_Model_Resource_Log&#45;&gt;Mage_Core_Model_Date -->
<g id="edge16" class="edge"><title>Mage_Captcha_Model_Resource_Log&#45;&gt;Mage_Core_Model_Date</title>
<path fill="none" stroke="#dddddd" stroke-dasharray="5,2" d="M711.549,-697.993C738.54,-692.808 764.579,-682.317 784,-662.951 826.639,-620.433 761.85,-571.954 804,-528.951 820.252,-512.37 842.658,-503.698 865.526,-499.551"/>
<polygon fill="#dddddd" stroke="#dddddd" points="872.631,-498.405 866.222,-502.629 869.176,-498.962 865.72,-499.519 865.72,-499.519 865.72,-499.519 869.176,-498.962 865.219,-496.409 872.631,-498.405 872.631,-498.405"/>
</g>
<!-- Mage_Core_Model_Resource_Db_Abstract -->
<g id="node29" class="node"><title>Mage_Core_Model_Resource_Db_Abstract</title>
<polygon fill="#dddddd" stroke="none" points="1115.5,-411.951 812.5,-411.951 812.5,-375.951 1115.5,-375.951 1115.5,-411.951"/>
<text text-anchor="middle" x="964" y="-390.251" font-family="verdana" font-size="14.00">Mage_Core_Model_Resource_Db_Abstract</text>
</g>
<!-- Mage_Captcha_Model_Resource_Log&#45;&gt;Mage_Core_Model_Resource_Db_Abstract -->
<g id="edge15" class="edge"><title>Mage_Captcha_Model_Resource_Log&#45;&gt;Mage_Core_Model_Resource_Db_Abstract</title>
<path fill="none" stroke="#dddddd" stroke-width="2" d="M711.71,-699.074C738.94,-693.9 765.041,-683.141 784,-662.951 820.939,-623.615 767.514,-460.708 804,-420.951 805.284,-419.552 806.611,-418.208 807.979,-416.918"/>
<polygon fill="#dddddd" stroke="#dddddd" stroke-width="2" points="813.448,-412.2 810.205,-419.158 811.124,-414.865 808.474,-417.151 808.147,-416.773 807.821,-416.394 810.471,-414.108 806.09,-414.388 813.448,-412.2 813.448,-412.2"/>
</g>
<!-- Mage_Captcha_Model_Zend -->
<g id="node18" class="node"><title>Mage_Captcha_Model_Zend</title>
<polygon fill="#dddddd" stroke="none" points="284,-818.951 76,-818.951 76,-782.951 284,-782.951 284,-818.951"/>
<text text-anchor="middle" x="180" y="-797.251" font-family="verdana" font-size="14.00">Mage_Captcha_Model_Zend</text>
</g>
<!-- Mage_Captcha_Model_Zend&#45;&gt;Mage_Admin_Model_Session -->
<g id="edge13" class="edge"><title>Mage_Captcha_Model_Zend&#45;&gt;Mage_Admin_Model_Session</title>
<path fill="none" stroke="#dddddd" stroke-dasharray="5,2" d="M284.205,-804.659C306.898,-800.327 328.695,-791.241 344,-773.951 392.504,-719.158 325.977,-172.844 372,-115.951 394.65,-87.9515 429.987,-73.6203 464.983,-66.5965"/>
<polygon fill="#dddddd" stroke="#dddddd" points="471.974,-65.2873 465.673,-69.6721 468.533,-65.9316 465.093,-66.5759 465.093,-66.5759 465.093,-66.5759 468.533,-65.9316 464.513,-63.4798 471.974,-65.2873 471.974,-65.2873"/>
</g>
<!-- Mage_Captcha_Model_Zend&#45;&gt;Mage_Captcha_Helper_Data -->
<g id="edge11" class="edge"><title>Mage_Captcha_Model_Zend&#45;&gt;Mage_Captcha_Helper_Data</title>
<path fill="none" stroke="#dddddd" stroke-dasharray="1,5" d="M284.065,-815.703C312.545,-819.73 343.464,-824.055 372,-827.951 402.211,-832.076 434.943,-836.436 465.197,-840.421"/>
<polygon fill="#dddddd" stroke="#dddddd" points="472.422,-841.372 465.071,-843.582 468.952,-840.915 465.482,-840.459 465.482,-840.459 465.482,-840.459 468.952,-840.915 465.893,-837.335 472.422,-841.372 472.422,-841.372"/>
</g>
<!-- Mage_Captcha_Model_Zend&#45;&gt;Mage_Captcha_Model_Interface -->
<g id="edge10" class="edge"><title>Mage_Captcha_Model_Zend&#45;&gt;Mage_Captcha_Model_Interface</title>
<path fill="none" stroke="#dddddd" stroke-width="2" d="M284.011,-800.951C335.88,-800.951 399.146,-800.951 453.597,-800.951"/>
<polygon fill="#dddddd" stroke="#dddddd" stroke-width="2" points="460.876,-800.951 453.876,-804.101 457.376,-801.451 453.876,-801.451 453.876,-800.951 453.876,-800.451 457.376,-800.451 453.876,-797.801 460.876,-800.951 460.876,-800.951"/>
</g>
<!-- Mage_Captcha_Model_Zend&#45;&gt;Mage_Captcha_Model_Resource_Log -->
<g id="edge12" class="edge"><title>Mage_Captcha_Model_Zend&#45;&gt;Mage_Captcha_Model_Resource_Log</title>
<path fill="none" stroke="#dddddd" stroke-dasharray="5,2" d="M284.157,-786.597C304.138,-783.048 324.82,-778.836 344,-773.951 407.685,-757.733 478.741,-731.854 525.448,-713.723"/>
<polygon fill="#dddddd" stroke="#dddddd" points="532.159,-711.106 526.782,-716.584 528.898,-712.378 525.637,-713.649 525.637,-713.649 525.637,-713.649 528.898,-712.378 524.493,-710.715 532.159,-711.106 532.159,-711.106"/>
</g>
<!-- Mage_Captcha_Model_Zend&#45;&gt;Mage_Customer_Model_Session -->
<g id="edge14" class="edge"><title>Mage_Captcha_Model_Zend&#45;&gt;Mage_Customer_Model_Session</title>
<path fill="none" stroke="#dddddd" stroke-dasharray="5,2" d="M284.394,-804.369C306.942,-800.012 328.626,-790.987 344,-773.951 411.574,-699.076 319.312,-406.954 372,-320.951 402.826,-270.634 463.038,-238.804 510.267,-220.492"/>
<polygon fill="#dddddd" stroke="#dddddd" points="516.84,-217.997 511.413,-223.426 513.568,-219.239 510.296,-220.481 510.296,-220.481 510.296,-220.481 513.568,-219.239 509.178,-217.536 516.84,-217.997 516.84,-217.997"/>
</g>
<!-- Mage_Captcha_RefreshController -->
<g id="node19" class="node"><title>Mage_Captcha_RefreshController</title>
<polygon fill="#dddddd" stroke="none" points="302.5,-710.951 57.5,-710.951 57.5,-674.951 302.5,-674.951 302.5,-710.951"/>
<text text-anchor="middle" x="180" y="-689.251" font-family="verdana" font-size="14.00">Mage_Captcha_RefreshController</text>
</g>
<!-- Mage_Captcha_RefreshController&#45;&gt;Mage_Captcha_Helper_Data -->
<g id="edge27" class="edge"><title>Mage_Captcha_RefreshController&#45;&gt;Mage_Captcha_Helper_Data</title>
<path fill="none" stroke="#dddddd" stroke-dasharray="1,5" d="M302.717,-696.927C317.935,-701.856 332.251,-709.209 344,-719.951 380.597,-753.41 334.853,-795.104 372,-827.951 397.358,-850.373 431.847,-859.941 465.301,-863.081"/>
<polygon fill="#dddddd" stroke="#dddddd" points="472.421,-863.656 465.19,-866.232 468.932,-863.374 465.443,-863.093 465.443,-863.093 465.443,-863.093 468.932,-863.374 465.697,-859.953 472.421,-863.656 472.421,-863.656"/>
</g>
<!-- Mage_Core_Controller_Front_Action -->
<g id="node22" class="node"><title>Mage_Core_Controller_Front_Action</title>
<polygon fill="#dddddd" stroke="none" points="1096.5,-195.951 831.5,-195.951 831.5,-159.951 1096.5,-159.951 1096.5,-195.951"/>
<text text-anchor="middle" x="964" y="-174.251" font-family="verdana" font-size="14.00">Mage_Core_Controller_Front_Action</text>
</g>
<!-- Mage_Captcha_RefreshController&#45;&gt;Mage_Core_Controller_Front_Action -->
<g id="edge26" class="edge"><title>Mage_Captcha_RefreshController&#45;&gt;Mage_Core_Controller_Front_Action</title>
<path fill="none" stroke="#dddddd" stroke-width="2" d="M183.325,-674.895C196.28,-577.373 262.94,-114.925 372,-32.9511 445.187,22.0589 697.698,-2.38216 784,-32.9511 852.244,-57.1238 913.48,-119.616 943.494,-154.146"/>
<polygon fill="#dddddd" stroke="#dddddd" stroke-width="2" points="948.385,-159.845 941.436,-156.585 945.726,-157.515 943.447,-154.859 943.826,-154.533 944.206,-154.208 946.485,-156.864 946.217,-152.482 948.385,-159.845 948.385,-159.845"/>
</g>
</g>
</svg>
