<?xml version="1.0" encoding="UTF-8" standalone="no"?>
<!DOCTYPE svg PUBLIC "-//W3C//DTD SVG 1.1//EN"
 "http://www.w3.org/Graphics/SVG/1.1/DTD/svg11.dtd">
<!-- Generated by graphviz version 2.36.0 (20140111.2315)
 -->
<!-- Title: callgraph Pages: 1 -->
<svg width="2051pt" height="1405pt"
 viewBox="0.00 0.00 2051.32 1404.88" xmlns="http://www.w3.org/2000/svg" xmlns:xlink="http://www.w3.org/1999/xlink">
<g id="graph0" class="graph" transform="scale(1 1) rotate(0) translate(4 1400.88)">
<title>callgraph</title>
<polygon fill="white" stroke="none" points="-4,4 -4,-1400.88 2047.32,-1400.88 2047.32,4 -4,4"/>
<!-- Mage_Eav -->
<g id="node1" class="node"><title>Mage_Eav</title>
<polygon fill="#dddddd" stroke="none" points="756.807,-728.927 670.807,-728.927 670.807,-692.927 756.807,-692.927 756.807,-728.927"/>
<text text-anchor="middle" x="713.807" y="-707.227" font-family="verdana" font-size="14.00">Mage_Eav</text>
</g>
<!-- Mage_Core -->
<g id="node2" class="node"><title>Mage_Core</title>
<polygon fill="#dddddd" stroke="none" points="1423.91,-1068.15 1330.91,-1068.15 1330.91,-1032.15 1423.91,-1032.15 1423.91,-1068.15"/>
<text text-anchor="middle" x="1377.41" y="-1046.45" font-family="verdana" font-size="14.00">Mage_Core</text>
</g>
<!-- Mage_Eav&#45;&gt;Mage_Core -->
<g id="edge1" class="edge"><title>Mage_Eav&#45;&gt;Mage_Core</title>
<path fill="none" stroke="#dddddd" d="M749.485,-729.165C862.816,-787.098 1214.28,-966.757 1335.67,-1028.81"/>
<polygon fill="#dddddd" stroke="#dddddd" points="1341.96,-1032.03 1334.3,-1031.65 1338.85,-1030.43 1335.73,-1028.84 1335.73,-1028.84 1335.73,-1028.84 1338.85,-1030.43 1337.16,-1026.04 1341.96,-1032.03 1341.96,-1032.03"/>
</g>
<!-- Mage_Page -->
<g id="node3" class="node"><title>Mage_Page</title>
<polygon fill="#dddddd" stroke="none" points="2000.68,-624.147 1906.68,-624.147 1906.68,-588.147 2000.68,-588.147 2000.68,-624.147"/>
<text text-anchor="middle" x="1953.68" y="-602.447" font-family="verdana" font-size="14.00">Mage_Page</text>
</g>
<!-- Mage_Page&#45;&gt;Mage_Core -->
<g id="edge2" class="edge"><title>Mage_Page&#45;&gt;Mage_Core</title>
<path fill="none" stroke="#dddddd" d="M1930.02,-624.38C1838.44,-694.938 1507.43,-949.977 1406.7,-1027.59"/>
<polygon fill="#dddddd" stroke="#dddddd" points="1400.96,-1032.01 1404.58,-1025.24 1403.73,-1029.87 1406.5,-1027.74 1406.5,-1027.74 1406.5,-1027.74 1403.73,-1029.87 1408.43,-1030.23 1400.96,-1032.01 1400.96,-1032.01"/>
</g>
<!-- Mage_Install -->
<g id="node4" class="node"><title>Mage_Install</title>
<polygon fill="#dddddd" stroke="none" points="1663.47,-738.939 1560.47,-738.939 1560.47,-702.939 1663.47,-702.939 1663.47,-738.939"/>
<text text-anchor="middle" x="1611.97" y="-717.239" font-family="verdana" font-size="14.00">Mage_Install</text>
</g>
<!-- Mage_Install&#45;&gt;Mage_Core -->
<g id="edge3" class="edge"><title>Mage_Install&#45;&gt;Mage_Core</title>
<path fill="none" stroke="#dddddd" d="M1599.03,-739.108C1559.3,-794.867 1439.11,-963.557 1394.4,-1026.3"/>
<polygon fill="#dddddd" stroke="#dddddd" points="1390.32,-1032.04 1391.82,-1024.51 1392.35,-1029.19 1394.38,-1026.34 1394.38,-1026.34 1394.38,-1026.34 1392.35,-1029.19 1396.95,-1028.16 1390.32,-1032.04 1390.32,-1032.04"/>
</g>
<!-- Mage_Admin -->
<g id="node5" class="node"><title>Mage_Admin</title>
<polygon fill="#dddddd" stroke="none" points="1275.31,-916.629 1171.31,-916.629 1171.31,-880.629 1275.31,-880.629 1275.31,-916.629"/>
<text text-anchor="middle" x="1223.31" y="-894.929" font-family="verdana" font-size="14.00">Mage_Admin</text>
</g>
<!-- Mage_Admin&#45;&gt;Mage_Core -->
<g id="edge4" class="edge"><title>Mage_Admin&#45;&gt;Mage_Core</title>
<path fill="none" stroke="#dddddd" d="M1241.9,-916.906C1269.9,-944.436 1322.88,-996.534 1353.65,-1026.79"/>
<polygon fill="#dddddd" stroke="#dddddd" points="1358.76,-1031.81 1351.56,-1029.15 1356.26,-1029.35 1353.77,-1026.9 1353.77,-1026.9 1353.77,-1026.9 1356.26,-1029.35 1355.98,-1024.65 1358.76,-1031.81 1358.76,-1031.81"/>
</g>
<!-- Mage_Rule -->
<g id="node6" class="node"><title>Mage_Rule</title>
<polygon fill="#dddddd" stroke="none" points="463.465,-344.017 372.465,-344.017 372.465,-308.017 463.465,-308.017 463.465,-344.017"/>
<text text-anchor="middle" x="417.965" y="-322.317" font-family="verdana" font-size="14.00">Mage_Rule</text>
</g>
<!-- Mage_Rule&#45;&gt;Mage_Core -->
<g id="edge5" class="edge"><title>Mage_Rule&#45;&gt;Mage_Core</title>
<path fill="none" stroke="#dddddd" d="M442.162,-344.28C573.737,-443.584 1202.52,-918.153 1347.53,-1027.6"/>
<polygon fill="#dddddd" stroke="#dddddd" points="1353.28,-1031.94 1345.8,-1030.23 1350.49,-1029.83 1347.7,-1027.72 1347.7,-1027.72 1347.7,-1027.72 1350.49,-1029.83 1349.59,-1025.21 1353.28,-1031.94 1353.28,-1031.94"/>
</g>
<!-- Mage_Adminhtml -->
<g id="node7" class="node"><title>Mage_Adminhtml</title>
<polygon fill="#dddddd" stroke="none" points="1142.4,-818.429 1006.4,-818.429 1006.4,-782.429 1142.4,-782.429 1142.4,-818.429"/>
<text text-anchor="middle" x="1074.4" y="-796.729" font-family="verdana" font-size="14.00">Mage_Adminhtml</text>
</g>
<!-- Mage_Adminhtml&#45;&gt;Mage_Admin -->
<g id="edge6" class="edge"><title>Mage_Adminhtml&#45;&gt;Mage_Admin</title>
<path fill="none" stroke="#dddddd" d="M1101.71,-818.441C1126.61,-834.862 1163.46,-859.164 1190.07,-876.708"/>
<polygon fill="#dddddd" stroke="#dddddd" points="1195.92,-880.566 1188.34,-879.342 1193,-878.639 1190.07,-876.712 1190.07,-876.712 1190.07,-876.712 1193,-878.639 1191.81,-874.082 1195.92,-880.566 1195.92,-880.566"/>
</g>
<!-- Mage_AdminNotification -->
<g id="node8" class="node"><title>Mage_AdminNotification</title>
<polygon fill="#dddddd" stroke="none" points="1011.04,-938.745 828.042,-938.745 828.042,-902.745 1011.04,-902.745 1011.04,-938.745"/>
<text text-anchor="middle" x="919.542" y="-917.045" font-family="verdana" font-size="14.00">Mage_AdminNotification</text>
</g>
<!-- Mage_AdminNotification&#45;&gt;Mage_Core -->
<g id="edge7" class="edge"><title>Mage_AdminNotification&#45;&gt;Mage_Core</title>
<path fill="none" stroke="#dddddd" d="M983.69,-938.874C1074.54,-964.55 1239.04,-1011.04 1323.77,-1034.99"/>
<polygon fill="#dddddd" stroke="#dddddd" points="1330.72,-1036.95 1323.13,-1038.08 1327.35,-1036 1323.99,-1035.05 1323.99,-1035.05 1323.99,-1035.05 1327.35,-1036 1324.84,-1032.02 1330.72,-1036.95 1330.72,-1036.95"/>
</g>
<!-- Mage_AdminNotification&#45;&gt;Mage_Adminhtml -->
<g id="edge8" class="edge"><title>Mage_AdminNotification&#45;&gt;Mage_Adminhtml</title>
<path fill="none" stroke="#dddddd" d="M942.726,-902.732C970.094,-881.468 1015.63,-846.085 1045.34,-823.008"/>
<polygon fill="#dddddd" stroke="#dddddd" points="1051.06,-818.565 1047.46,-825.347 1048.29,-820.712 1045.53,-822.86 1045.53,-822.86 1045.53,-822.86 1048.29,-820.712 1043.6,-820.372 1051.06,-818.565 1051.06,-818.565"/>
</g>
<!-- Mage_Cron -->
<g id="node9" class="node"><title>Mage_Cron</title>
<polygon fill="#dddddd" stroke="none" points="1972.75,-836.991 1878.75,-836.991 1878.75,-800.991 1972.75,-800.991 1972.75,-836.991"/>
<text text-anchor="middle" x="1925.75" y="-815.291" font-family="verdana" font-size="14.00">Mage_Cron</text>
</g>
<!-- Mage_Cron&#45;&gt;Mage_Core -->
<g id="edge9" class="edge"><title>Mage_Cron&#45;&gt;Mage_Core</title>
<path fill="none" stroke="#dddddd" d="M1882.72,-837.129C1782.32,-879.455 1533.05,-984.541 1426.73,-1029.36"/>
<polygon fill="#dddddd" stroke="#dddddd" points="1420.24,-1032.1 1425.47,-1026.47 1423.47,-1030.74 1426.69,-1029.38 1426.69,-1029.38 1426.69,-1029.38 1423.47,-1030.74 1427.92,-1032.28 1420.24,-1032.1 1420.24,-1032.1"/>
</g>
<!-- Mage_Directory -->
<g id="node10" class="node"><title>Mage_Directory</title>
<polygon fill="#dddddd" stroke="none" points="915.53,-646.461 790.53,-646.461 790.53,-610.461 915.53,-610.461 915.53,-646.461"/>
<text text-anchor="middle" x="853.03" y="-624.761" font-family="verdana" font-size="14.00">Mage_Directory</text>
</g>
<!-- Mage_Directory&#45;&gt;Mage_Core -->
<g id="edge10" class="edge"><title>Mage_Directory&#45;&gt;Mage_Core</title>
<path fill="none" stroke="#dddddd" d="M875.562,-646.58C959.857,-714.367 1256.53,-952.943 1349.4,-1027.63"/>
<polygon fill="#dddddd" stroke="#dddddd" points="1354.97,-1032.1 1347.54,-1030.17 1352.24,-1029.9 1349.51,-1027.71 1349.51,-1027.71 1349.51,-1027.71 1352.24,-1029.9 1351.49,-1025.26 1354.97,-1032.1 1354.97,-1032.1"/>
</g>
<!-- Mage_Dataflow -->
<g id="node11" class="node"><title>Mage_Dataflow</title>
<polygon fill="#dddddd" stroke="none" points="847.536,-501.438 722.536,-501.438 722.536,-465.438 847.536,-465.438 847.536,-501.438"/>
<text text-anchor="middle" x="785.036" y="-479.738" font-family="verdana" font-size="14.00">Mage_Dataflow</text>
</g>
<!-- Mage_Dataflow&#45;&gt;Mage_Core -->
<g id="edge11" class="edge"><title>Mage_Dataflow&#45;&gt;Mage_Core</title>
<path fill="none" stroke="#dddddd" d="M804.074,-501.652C891.634,-585.418 1255.53,-933.542 1353.2,-1026.98"/>
<polygon fill="#dddddd" stroke="#dddddd" points="1358.45,-1032 1351.21,-1029.44 1355.92,-1029.58 1353.39,-1027.16 1353.39,-1027.16 1353.39,-1027.16 1355.92,-1029.58 1355.57,-1024.89 1358.45,-1032 1358.45,-1032"/>
</g>
<!-- Mage_Cms -->
<g id="node12" class="node"><title>Mage_Cms</title>
<polygon fill="#dddddd" stroke="none" points="1978.07,-71.9316 1888.07,-71.9316 1888.07,-35.9316 1978.07,-35.9316 1978.07,-71.9316"/>
<text text-anchor="middle" x="1933.07" y="-50.2316" font-family="verdana" font-size="14.00">Mage_Cms</text>
</g>
<!-- Mage_Cms&#45;&gt;Mage_Core -->
<g id="edge12" class="edge"><title>Mage_Cms&#45;&gt;Mage_Core</title>
<path fill="none" stroke="#dddddd" d="M1922.95,-72.0732C1855.26,-193.432 1468.53,-886.796 1390.96,-1025.86"/>
<polygon fill="#dddddd" stroke="#dddddd" points="1387.5,-1032.06 1388.16,-1024.41 1389.21,-1029.01 1390.91,-1025.95 1390.91,-1025.95 1390.91,-1025.95 1389.21,-1029.01 1393.66,-1027.48 1387.5,-1032.06 1387.5,-1032.06"/>
</g>
<!-- Mage_Index -->
<g id="node13" class="node"><title>Mage_Index</title>
<polygon fill="#dddddd" stroke="none" points="1670.71,-922.815 1571.71,-922.815 1571.71,-886.815 1670.71,-886.815 1670.71,-922.815"/>
<text text-anchor="middle" x="1621.21" y="-901.115" font-family="verdana" font-size="14.00">Mage_Index</text>
</g>
<!-- Mage_Index&#45;&gt;Mage_Core -->
<g id="edge13" class="edge"><title>Mage_Index&#45;&gt;Mage_Core</title>
<path fill="none" stroke="#dddddd" d="M1590.83,-922.928C1546,-949.654 1462.24,-999.581 1414.07,-1028.3"/>
<polygon fill="#dddddd" stroke="#dddddd" points="1407.8,-1032.04 1412.2,-1025.75 1410.8,-1030.25 1413.81,-1028.45 1413.81,-1028.45 1413.81,-1028.45 1410.8,-1030.25 1415.42,-1031.16 1407.8,-1032.04 1407.8,-1032.04"/>
</g>
<!-- Mage_Customer -->
<g id="node14" class="node"><title>Mage_Customer</title>
<polygon fill="#dddddd" stroke="none" points="1060.98,-601.725 932.981,-601.725 932.981,-565.725 1060.98,-565.725 1060.98,-601.725"/>
<text text-anchor="middle" x="996.981" y="-580.025" font-family="verdana" font-size="14.00">Mage_Customer</text>
</g>
<!-- Mage_Customer&#45;&gt;Mage_Eav -->
<g id="edge14" class="edge"><title>Mage_Customer&#45;&gt;Mage_Eav</title>
<path fill="none" stroke="#dddddd" d="M956.71,-601.815C904.914,-625.082 815.132,-665.412 760.431,-689.984"/>
<polygon fill="#dddddd" stroke="#dddddd" points="753.939,-692.9 759.034,-687.158 757.132,-691.466 760.324,-690.032 760.324,-690.032 760.324,-690.032 757.132,-691.466 761.615,-692.905 753.939,-692.9 753.939,-692.9"/>
</g>
<!-- Mage_Customer&#45;&gt;Mage_Directory -->
<g id="edge16" class="edge"><title>Mage_Customer&#45;&gt;Mage_Directory</title>
<path fill="none" stroke="#dddddd" d="M938.846,-601.792C932.057,-603.902 925.098,-606.064 918.222,-608.201"/>
<polygon fill="#dddddd" stroke="#dddddd" points="911.383,-610.327 917.133,-605.241 914.725,-609.288 918.067,-608.249 918.067,-608.249 918.067,-608.249 914.725,-609.288 919.002,-611.257 911.383,-610.327 911.383,-610.327"/>
</g>
<!-- Mage_Customer&#45;&gt;Mage_Dataflow -->
<g id="edge15" class="edge"><title>Mage_Customer&#45;&gt;Mage_Dataflow</title>
<path fill="none" stroke="#dddddd" d="M958.6,-565.564C922.289,-548.383 867.807,-522.603 829.594,-504.522"/>
<polygon fill="#dddddd" stroke="#dddddd" points="823.132,-501.464 830.807,-501.611 826.296,-502.961 829.459,-504.458 829.459,-504.458 829.459,-504.458 826.296,-502.961 828.112,-507.306 823.132,-501.464 823.132,-501.464"/>
</g>
<!-- Mage_Catalog -->
<g id="node15" class="node"><title>Mage_Catalog</title>
<polygon fill="#dddddd" stroke="none" points="582.107,-795.639 469.107,-795.639 469.107,-759.639 582.107,-759.639 582.107,-795.639"/>
<text text-anchor="middle" x="525.607" y="-773.939" font-family="verdana" font-size="14.00">Mage_Catalog</text>
</g>
<!-- Mage_Catalog&#45;&gt;Mage_Eav -->
<g id="edge17" class="edge"><title>Mage_Catalog&#45;&gt;Mage_Eav</title>
<path fill="none" stroke="#dddddd" d="M576.536,-759.586C603.732,-749.946 637.071,-738.128 664.082,-728.553"/>
<polygon fill="#dddddd" stroke="#dddddd" points="670.806,-726.17 665.26,-731.478 667.507,-727.339 664.208,-728.509 664.208,-728.509 664.208,-728.509 667.507,-727.339 663.155,-725.54 670.806,-726.17 670.806,-726.17"/>
</g>
<!-- Mage_Catalog&#45;&gt;Mage_Dataflow -->
<g id="edge18" class="edge"><title>Mage_Catalog&#45;&gt;Mage_Dataflow</title>
<path fill="none" stroke="#dddddd" d="M541.835,-759.236C586.985,-708.034 714.045,-563.944 764.25,-507.009"/>
<polygon fill="#dddddd" stroke="#dddddd" points="769.145,-501.459 766.877,-508.793 766.83,-504.084 764.515,-506.709 764.515,-506.709 764.515,-506.709 766.83,-504.084 762.152,-504.626 769.145,-501.459 769.145,-501.459"/>
</g>
<!-- Mage_Catalog&#45;&gt;Mage_Cms -->
<g id="edge19" class="edge"><title>Mage_Catalog&#45;&gt;Mage_Cms</title>
<path fill="none" stroke="#dddddd" d="M560.749,-759.569C753.746,-660.331 1683.67,-182.169 1891.72,-75.193"/>
<polygon fill="#dddddd" stroke="#dddddd" points="1897.95,-71.9885 1893.17,-77.9909 1894.84,-73.589 1891.72,-75.1895 1891.72,-75.1895 1891.72,-75.1895 1894.84,-73.589 1890.28,-72.3881 1897.95,-71.9885 1897.95,-71.9885"/>
</g>
<!-- Mage_Catalog&#45;&gt;Mage_Index -->
<g id="edge20" class="edge"><title>Mage_Catalog&#45;&gt;Mage_Index</title>
<path fill="none" stroke="#dddddd" d="M582.204,-784.209C770.718,-806.091 1376.02,-876.354 1564.58,-898.241"/>
<polygon fill="#dddddd" stroke="#dddddd" points="1571.65,-899.061 1564.33,-901.383 1568.17,-898.658 1564.7,-898.254 1564.7,-898.254 1564.7,-898.254 1568.17,-898.658 1565.06,-895.125 1571.65,-899.061 1571.65,-899.061"/>
</g>
<!-- Mage_CatalogRule -->
<g id="node16" class="node"><title>Mage_CatalogRule</title>
<polygon fill="#dddddd" stroke="none" points="1004.96,-474.147 861.961,-474.147 861.961,-438.147 1004.96,-438.147 1004.96,-474.147"/>
<text text-anchor="middle" x="933.461" y="-452.447" font-family="verdana" font-size="14.00">Mage_CatalogRule</text>
</g>
<!-- Mage_CatalogRule&#45;&gt;Mage_Rule -->
<g id="edge21" class="edge"><title>Mage_CatalogRule&#45;&gt;Mage_Rule</title>
<path fill="none" stroke="#dddddd" d="M862.054,-438.122C757.121,-411.632 563.666,-362.798 470.638,-339.314"/>
<polygon fill="#dddddd" stroke="#dddddd" points="463.575,-337.531 471.133,-336.19 466.969,-338.388 470.362,-339.244 470.362,-339.244 470.362,-339.244 466.969,-338.388 469.591,-342.299 463.575,-337.531 463.575,-337.531"/>
</g>
<!-- Mage_CatalogRule&#45;&gt;Mage_Customer -->
<g id="edge23" class="edge"><title>Mage_CatalogRule&#45;&gt;Mage_Customer</title>
<path fill="none" stroke="#dddddd" d="M942.427,-474.155C953.478,-496.349 972.309,-534.171 984.698,-559.055"/>
<polygon fill="#dddddd" stroke="#dddddd" points="987.855,-565.395 981.915,-560.533 986.295,-562.262 984.735,-559.129 984.735,-559.129 984.735,-559.129 986.295,-562.262 987.555,-557.725 987.855,-565.395 987.855,-565.395"/>
</g>
<!-- Mage_CatalogRule&#45;&gt;Mage_Catalog -->
<g id="edge22" class="edge"><title>Mage_CatalogRule&#45;&gt;Mage_Catalog</title>
<path fill="none" stroke="#dddddd" d="M910.364,-474.353C840.4,-529.502 630.9,-694.641 554.172,-755.123"/>
<polygon fill="#dddddd" stroke="#dddddd" points="548.45,-759.633 551.997,-752.826 551.199,-757.466 553.947,-755.3 553.947,-755.3 553.947,-755.3 551.199,-757.466 555.897,-757.774 548.45,-759.633 548.45,-759.633"/>
</g>
<!-- Mage_CatalogIndex -->
<g id="node17" class="node"><title>Mage_CatalogIndex</title>
<polygon fill="#dddddd" stroke="none" points="696.008,-566.081 544.008,-566.081 544.008,-530.081 696.008,-530.081 696.008,-566.081"/>
<text text-anchor="middle" x="620.008" y="-544.381" font-family="verdana" font-size="14.00">Mage_CatalogIndex</text>
</g>
<!-- Mage_CatalogIndex&#45;&gt;Mage_Eav -->
<g id="edge25" class="edge"><title>Mage_CatalogIndex&#45;&gt;Mage_Eav</title>
<path fill="none" stroke="#dddddd" d="M630.404,-566.13C647.307,-595.476 680.766,-653.565 699.766,-686.55"/>
<polygon fill="#dddddd" stroke="#dddddd" points="703.363,-692.797 697.14,-688.303 701.617,-689.764 699.87,-686.731 699.87,-686.731 699.87,-686.731 701.617,-689.764 702.599,-685.159 703.363,-692.797 703.363,-692.797"/>
</g>
<!-- Mage_CatalogIndex&#45;&gt;Mage_Catalog -->
<g id="edge24" class="edge"><title>Mage_CatalogIndex&#45;&gt;Mage_Catalog</title>
<path fill="none" stroke="#dddddd" d="M612.6,-566.094C595.856,-606.81 555.062,-706.012 535.886,-752.642"/>
<polygon fill="#dddddd" stroke="#dddddd" points="533.11,-759.392 532.859,-751.72 534.441,-756.155 535.773,-752.918 535.773,-752.918 535.773,-752.918 534.441,-756.155 538.686,-754.116 533.11,-759.392 533.11,-759.392"/>
</g>
<!-- Mage_CatalogIndex&#45;&gt;Mage_CatalogRule -->
<g id="edge26" class="edge"><title>Mage_CatalogIndex&#45;&gt;Mage_CatalogRule</title>
<path fill="none" stroke="#dddddd" d="M681.562,-530.027C734.395,-514.532 810.45,-492.225 865.15,-476.182"/>
<polygon fill="#dddddd" stroke="#dddddd" points="872.048,-474.159 866.217,-479.152 868.689,-475.144 865.331,-476.129 865.331,-476.129 865.331,-476.129 868.689,-475.144 864.444,-473.107 872.048,-474.159 872.048,-474.159"/>
</g>
<!-- Mage_CatalogSearch -->
<g id="node18" class="node"><title>Mage_CatalogSearch</title>
<polygon fill="#dddddd" stroke="none" points="196.923,-1353.29 35.9226,-1353.29 35.9226,-1317.29 196.923,-1317.29 196.923,-1353.29"/>
<text text-anchor="middle" x="116.423" y="-1331.59" font-family="verdana" font-size="14.00">Mage_CatalogSearch</text>
</g>
<!-- Mage_CatalogSearch&#45;&gt;Mage_Catalog -->
<g id="edge27" class="edge"><title>Mage_CatalogSearch&#45;&gt;Mage_Catalog</title>
<path fill="none" stroke="#dddddd" d="M129.804,-1317.06C190.453,-1234.4 439.534,-894.942 508.077,-801.529"/>
<polygon fill="#dddddd" stroke="#dddddd" points="512.327,-795.737 510.726,-803.245 510.256,-798.559 508.186,-801.381 508.186,-801.381 508.186,-801.381 510.256,-798.559 505.646,-799.518 512.327,-795.737 512.327,-795.737"/>
</g>
<!-- Mage_Payment -->
<g id="node19" class="node"><title>Mage_Payment</title>
<polygon fill="#dddddd" stroke="none" points="711.058,-327.109 589.058,-327.109 589.058,-291.109 711.058,-291.109 711.058,-327.109"/>
<text text-anchor="middle" x="650.058" y="-305.409" font-family="verdana" font-size="14.00">Mage_Payment</text>
</g>
<!-- Mage_Payment&#45;&gt;Mage_Core -->
<g id="edge28" class="edge"><title>Mage_Payment&#45;&gt;Mage_Core</title>
<path fill="none" stroke="#dddddd" d="M668.037,-327.427C766.989,-428.239 1244.75,-914.987 1354.78,-1027.09"/>
<polygon fill="#dddddd" stroke="#dddddd" points="1359.74,-1032.14 1352.59,-1029.35 1357.29,-1029.64 1354.84,-1027.15 1354.84,-1027.15 1354.84,-1027.15 1357.29,-1029.64 1357.08,-1024.94 1359.74,-1032.14 1359.74,-1032.14"/>
</g>
<!-- Mage_Payment&#45;&gt;Mage_Catalog -->
<g id="edge29" class="edge"><title>Mage_Payment&#45;&gt;Mage_Catalog</title>
<path fill="none" stroke="#dddddd" d="M645.255,-327.188C626.005,-399.661 554.398,-669.247 532.207,-752.792"/>
<polygon fill="#dddddd" stroke="#dddddd" points="530.395,-759.613 529.147,-752.039 531.293,-756.231 532.192,-752.848 532.192,-752.848 532.192,-752.848 531.293,-756.231 535.236,-753.657 530.395,-759.613 530.395,-759.613"/>
</g>
<!-- Mage_Sales -->
<g id="node20" class="node"><title>Mage_Sales</title>
<polygon fill="#dddddd" stroke="none" points="1136.68,-473.604 1039.68,-473.604 1039.68,-437.604 1136.68,-437.604 1136.68,-473.604"/>
<text text-anchor="middle" x="1088.18" y="-451.904" font-family="verdana" font-size="14.00">Mage_Sales</text>
</g>
<!-- Mage_Sales&#45;&gt;Mage_Rule -->
<g id="edge30" class="edge"><title>Mage_Sales&#45;&gt;Mage_Rule</title>
<path fill="none" stroke="#dddddd" d="M1039.44,-446.18C917.048,-422.515 597.518,-360.734 470.824,-336.238"/>
<polygon fill="#dddddd" stroke="#dddddd" points="463.848,-334.889 471.319,-333.125 467.285,-335.553 470.721,-336.218 470.721,-336.218 470.721,-336.218 467.285,-335.553 470.123,-339.311 463.848,-334.889 463.848,-334.889"/>
</g>
<!-- Mage_Sales&#45;&gt;Mage_Customer -->
<g id="edge32" class="edge"><title>Mage_Sales&#45;&gt;Mage_Customer</title>
<path fill="none" stroke="#dddddd" d="M1075.31,-473.689C1059.31,-496.167 1031.95,-534.607 1014.17,-559.585"/>
<polygon fill="#dddddd" stroke="#dddddd" points="1010.08,-565.317 1011.58,-557.788 1012.11,-562.466 1014.14,-559.615 1014.14,-559.615 1014.14,-559.615 1012.11,-562.466 1016.71,-561.441 1010.08,-565.317 1010.08,-565.317"/>
</g>
<!-- Mage_Sales&#45;&gt;Mage_Catalog -->
<g id="edge31" class="edge"><title>Mage_Sales&#45;&gt;Mage_Catalog</title>
<path fill="none" stroke="#dddddd" d="M1056.73,-473.608C960.177,-528.879 668.241,-695.991 563.512,-755.941"/>
<polygon fill="#dddddd" stroke="#dddddd" points="557.184,-759.564 561.694,-753.352 560.221,-757.825 563.259,-756.086 563.259,-756.086 563.259,-756.086 560.221,-757.825 564.824,-758.82 557.184,-759.564 557.184,-759.564"/>
</g>
<!-- Mage_Sales&#45;&gt;Mage_Payment -->
<g id="edge33" class="edge"><title>Mage_Sales&#45;&gt;Mage_Payment</title>
<path fill="none" stroke="#dddddd" d="M1039.62,-439.367C959.172,-412.467 798.432,-358.721 710.668,-329.375"/>
<polygon fill="#dddddd" stroke="#dddddd" points="703.96,-327.132 711.598,-326.364 707.28,-328.242 710.599,-329.352 710.599,-329.352 710.599,-329.352 707.28,-328.242 709.6,-332.339 703.96,-327.132 703.96,-327.132"/>
</g>
<!-- Mage_CatalogInventory -->
<g id="node21" class="node"><title>Mage_CatalogInventory</title>
<polygon fill="#dddddd" stroke="none" points="732.543,-1123.48 551.543,-1123.48 551.543,-1087.48 732.543,-1087.48 732.543,-1123.48"/>
<text text-anchor="middle" x="642.043" y="-1101.78" font-family="verdana" font-size="14.00">Mage_CatalogInventory</text>
</g>
<!-- Mage_CatalogInventory&#45;&gt;Mage_Catalog -->
<g id="edge34" class="edge"><title>Mage_CatalogInventory&#45;&gt;Mage_Catalog</title>
<path fill="none" stroke="#dddddd" d="M635.617,-1087.38C616.015,-1032.19 556.953,-865.899 534.448,-802.532"/>
<polygon fill="#dddddd" stroke="#dddddd" points="532.013,-795.677 537.324,-801.219 533.184,-798.975 534.356,-802.273 534.356,-802.273 534.356,-802.273 533.184,-798.975 531.387,-803.327 532.013,-795.677 532.013,-795.677"/>
</g>
<!-- Mage_Shipping -->
<g id="node22" class="node"><title>Mage_Shipping</title>
<polygon fill="#dddddd" stroke="none" points="2015.63,-1073.97 1895.63,-1073.97 1895.63,-1037.97 2015.63,-1037.97 2015.63,-1073.97"/>
<text text-anchor="middle" x="1955.63" y="-1052.27" font-family="verdana" font-size="14.00">Mage_Shipping</text>
</g>
<!-- Mage_Shipping&#45;&gt;Mage_Core -->
<g id="edge35" class="edge"><title>Mage_Shipping&#45;&gt;Mage_Core</title>
<path fill="none" stroke="#dddddd" d="M1895.39,-1055.36C1782.14,-1054.22 1539.23,-1051.78 1431.16,-1050.69"/>
<polygon fill="#dddddd" stroke="#dddddd" points="1423.93,-1050.62 1430.96,-1047.54 1427.43,-1050.65 1430.93,-1050.69 1430.93,-1050.69 1430.93,-1050.69 1427.43,-1050.65 1430.9,-1053.84 1423.93,-1050.62 1423.93,-1050.62"/>
</g>
<!-- Mage_Shipping&#45;&gt;Mage_Catalog -->
<g id="edge36" class="edge"><title>Mage_Shipping&#45;&gt;Mage_Catalog</title>
<path fill="none" stroke="#dddddd" d="M1895.55,-1044.27C1663.65,-999.138 827.907,-836.477 589.503,-790.076"/>
<polygon fill="#dddddd" stroke="#dddddd" points="582.287,-788.671 589.76,-786.917 585.722,-789.34 589.158,-790.009 589.158,-790.009 589.158,-790.009 585.722,-789.34 588.556,-793.101 582.287,-788.671 582.287,-788.671"/>
</g>
<!-- Mage_SalesRule -->
<g id="node23" class="node"><title>Mage_SalesRule</title>
<polygon fill="#dddddd" stroke="none" points="896.261,-289.86 769.261,-289.86 769.261,-253.86 896.261,-253.86 896.261,-289.86"/>
<text text-anchor="middle" x="832.761" y="-268.16" font-family="verdana" font-size="14.00">Mage_SalesRule</text>
</g>
<!-- Mage_SalesRule&#45;&gt;Mage_Rule -->
<g id="edge37" class="edge"><title>Mage_SalesRule&#45;&gt;Mage_Rule</title>
<path fill="none" stroke="#dddddd" d="M768.858,-280.203C687.072,-290.882 546.892,-309.184 470.818,-319.117"/>
<polygon fill="#dddddd" stroke="#dddddd" points="463.661,-320.051 470.194,-316.021 467.131,-319.598 470.602,-319.145 470.602,-319.145 470.602,-319.145 467.131,-319.598 471.01,-322.268 463.661,-320.051 463.661,-320.051"/>
</g>
<!-- Mage_SalesRule&#45;&gt;Mage_Catalog -->
<g id="edge38" class="edge"><title>Mage_SalesRule&#45;&gt;Mage_Catalog</title>
<path fill="none" stroke="#dddddd" d="M821.829,-289.861C775.277,-366.515 593.523,-665.804 540.316,-753.418"/>
<polygon fill="#dddddd" stroke="#dddddd" points="536.567,-759.591 537.508,-751.973 538.384,-756.599 540.201,-753.608 540.201,-753.608 540.201,-753.608 538.384,-756.599 542.893,-755.243 536.567,-759.591 536.567,-759.591"/>
</g>
<!-- Mage_SalesRule&#45;&gt;Mage_Sales -->
<g id="edge39" class="edge"><title>Mage_SalesRule&#45;&gt;Mage_Sales</title>
<path fill="none" stroke="#dddddd" d="M858.185,-290.15C905.232,-323.994 1005.72,-396.286 1056.87,-433.082"/>
<polygon fill="#dddddd" stroke="#dddddd" points="1062.86,-437.388 1055.34,-435.858 1060.02,-435.345 1057.18,-433.301 1057.18,-433.301 1057.18,-433.301 1060.02,-435.345 1059.02,-430.744 1062.86,-437.388 1062.86,-437.388"/>
</g>
<!-- Mage_Usa -->
<g id="node24" class="node"><title>Mage_Usa</title>
<polygon fill="#dddddd" stroke="none" points="746.157,-53.4605 660.157,-53.4605 660.157,-17.4605 746.157,-17.4605 746.157,-53.4605"/>
<text text-anchor="middle" x="703.157" y="-31.7605" font-family="verdana" font-size="14.00">Mage_Usa</text>
</g>
<!-- Mage_Usa&#45;&gt;Mage_Sales -->
<g id="edge40" class="edge"><title>Mage_Usa&#45;&gt;Mage_Sales</title>
<path fill="none" stroke="#dddddd" d="M719.701,-53.5135C781.269,-120.696 997.139,-356.257 1066.53,-431.974"/>
<polygon fill="#dddddd" stroke="#dddddd" points="1071.27,-437.145 1064.21,-434.113 1068.9,-434.565 1066.54,-431.985 1066.54,-431.985 1066.54,-431.985 1068.9,-434.565 1068.86,-429.856 1071.27,-437.145 1071.27,-437.145"/>
</g>
<!-- Mage_Usa&#45;&gt;Mage_Shipping -->
<g id="edge41" class="edge"><title>Mage_Usa&#45;&gt;Mage_Shipping</title>
<path fill="none" stroke="#dddddd" d="M725.428,-53.6064C877.225,-177.29 1758.67,-895.484 1927.63,-1033.15"/>
<polygon fill="#dddddd" stroke="#dddddd" points="1933.34,-1037.8 1925.92,-1035.82 1930.62,-1035.59 1927.91,-1033.38 1927.91,-1033.38 1927.91,-1033.38 1930.62,-1035.59 1929.9,-1030.94 1933.34,-1037.8 1933.34,-1037.8"/>
</g>
<!-- Mage_Paygate -->
<g id="node25" class="node"><title>Mage_Paygate</title>
<polygon fill="#dddddd" stroke="none" points="506.414,-61.4895 390.414,-61.4895 390.414,-25.4895 506.414,-25.4895 506.414,-61.4895"/>
<text text-anchor="middle" x="448.414" y="-39.7895" font-family="verdana" font-size="14.00">Mage_Paygate</text>
</g>
<!-- Mage_Paygate&#45;&gt;Mage_Payment -->
<g id="edge42" class="edge"><title>Mage_Paygate&#45;&gt;Mage_Payment</title>
<path fill="none" stroke="#dddddd" d="M462.273,-61.7466C497.829,-108.583 592.27,-232.987 632.022,-285.35"/>
<polygon fill="#dddddd" stroke="#dddddd" points="636.368,-291.075 629.626,-287.404 634.251,-288.287 632.135,-285.5 632.135,-285.5 632.135,-285.5 634.251,-288.287 634.644,-283.595 636.368,-291.075 636.368,-291.075"/>
</g>
<!-- Mage_Checkout -->
<g id="node26" class="node"><title>Mage_Checkout</title>
<polygon fill="#dddddd" stroke="none" points="766.208,-916.763 641.208,-916.763 641.208,-880.763 766.208,-880.763 766.208,-916.763"/>
<text text-anchor="middle" x="703.708" y="-895.063" font-family="verdana" font-size="14.00">Mage_Checkout</text>
</g>
<!-- Mage_Checkout&#45;&gt;Mage_Sales -->
<g id="edge43" class="edge"><title>Mage_Checkout&#45;&gt;Mage_Sales</title>
<path fill="none" stroke="#dddddd" d="M719.497,-880.564C780.352,-810.421 999.683,-557.612 1067.83,-479.06"/>
<polygon fill="#dddddd" stroke="#dddddd" points="1072.47,-473.71 1070.27,-481.062 1070.18,-476.354 1067.89,-478.998 1067.89,-478.998 1067.89,-478.998 1070.18,-476.354 1065.51,-476.933 1072.47,-473.71 1072.47,-473.71"/>
</g>
<!-- Mage_Checkout&#45;&gt;Mage_CatalogInventory -->
<g id="edge44" class="edge"><title>Mage_Checkout&#45;&gt;Mage_CatalogInventory</title>
<path fill="none" stroke="#dddddd" d="M698.236,-917.107C687.146,-954.283 662.012,-1038.54 649.462,-1080.61"/>
<polygon fill="#dddddd" stroke="#dddddd" points="647.415,-1087.47 646.398,-1079.86 648.416,-1084.12 649.416,-1080.76 649.416,-1080.76 649.416,-1080.76 648.416,-1084.12 652.435,-1081.66 647.415,-1087.47 647.415,-1087.47"/>
</g>
<!-- Mage_Backup -->
<g id="node27" class="node"><title>Mage_Backup</title>
<polygon fill="#dddddd" stroke="none" points="1982.06,-1363.68 1872.06,-1363.68 1872.06,-1327.68 1982.06,-1327.68 1982.06,-1363.68"/>
<text text-anchor="middle" x="1927.06" y="-1341.98" font-family="verdana" font-size="14.00">Mage_Backup</text>
</g>
<!-- Mage_Backup&#45;&gt;Mage_Core -->
<g id="edge45" class="edge"><title>Mage_Backup&#45;&gt;Mage_Core</title>
<path fill="none" stroke="#dddddd" d="M1893.51,-1327.64C1797.39,-1275.96 1521.32,-1127.53 1417.52,-1071.71"/>
<polygon fill="#dddddd" stroke="#dddddd" points="1411.23,-1068.33 1418.89,-1068.87 1414.31,-1069.99 1417.39,-1071.65 1417.39,-1071.65 1417.39,-1071.65 1414.31,-1069.99 1415.9,-1074.42 1411.23,-1068.33 1411.23,-1068.33"/>
</g>
<!-- Mage_Paypal -->
<g id="node28" class="node"><title>Mage_Paypal</title>
<polygon fill="#dddddd" stroke="none" points="958.182,-47.7316 852.182,-47.7316 852.182,-11.7316 958.182,-11.7316 958.182,-47.7316"/>
<text text-anchor="middle" x="905.182" y="-26.0316" font-family="verdana" font-size="14.00">Mage_Paypal</text>
</g>
<!-- Mage_Paypal&#45;&gt;Mage_Sales -->
<g id="edge48" class="edge"><title>Mage_Paypal&#45;&gt;Mage_Sales</title>
<path fill="none" stroke="#dddddd" d="M912.928,-47.7588C941.919,-115.224 1044.05,-352.912 1077.5,-430.734"/>
<polygon fill="#dddddd" stroke="#dddddd" points="1080.33,-437.334 1074.67,-432.147 1078.95,-434.119 1077.57,-430.903 1077.57,-430.903 1077.57,-430.903 1078.95,-434.119 1080.46,-429.659 1080.33,-437.334 1080.33,-437.334"/>
</g>
<!-- Mage_Paypal&#45;&gt;Mage_Paygate -->
<g id="edge46" class="edge"><title>Mage_Paypal&#45;&gt;Mage_Paygate</title>
<path fill="none" stroke="#dddddd" d="M851.891,-31.3367C767.915,-33.8661 605.01,-38.7728 513.984,-41.5145"/>
<polygon fill="#dddddd" stroke="#dddddd" points="506.75,-41.7324 513.652,-38.373 510.249,-41.627 513.747,-41.5216 513.747,-41.5216 513.747,-41.5216 510.249,-41.627 513.842,-44.6702 506.75,-41.7324 506.75,-41.7324"/>
</g>
<!-- Mage_Paypal&#45;&gt;Mage_Checkout -->
<g id="edge47" class="edge"><title>Mage_Paypal&#45;&gt;Mage_Checkout</title>
<path fill="none" stroke="#dddddd" d="M900.974,-47.8825C875.266,-158.77 739.498,-744.387 709.555,-873.544"/>
<polygon fill="#dddddd" stroke="#dddddd" points="707.893,-880.711 706.406,-873.181 708.684,-877.302 709.474,-873.892 709.474,-873.892 709.474,-873.892 708.684,-877.302 712.543,-874.604 707.893,-880.711 707.893,-880.711"/>
</g>
<!-- Mage_Poll -->
<g id="node29" class="node"><title>Mage_Poll</title>
<polygon fill="#dddddd" stroke="none" points="1663.95,-1140.21 1578.95,-1140.21 1578.95,-1104.21 1663.95,-1104.21 1663.95,-1140.21"/>
<text text-anchor="middle" x="1621.45" y="-1118.51" font-family="verdana" font-size="14.00">Mage_Poll</text>
</g>
<!-- Mage_Poll&#45;&gt;Mage_Core -->
<g id="edge49" class="edge"><title>Mage_Poll&#45;&gt;Mage_Core</title>
<path fill="none" stroke="#dddddd" d="M1578.94,-1109.65C1537.85,-1097.52 1475.45,-1079.1 1430.98,-1065.97"/>
<polygon fill="#dddddd" stroke="#dddddd" points="1424.01,-1063.91 1431.61,-1062.87 1427.36,-1064.9 1430.72,-1065.89 1430.72,-1065.89 1430.72,-1065.89 1427.36,-1064.9 1429.83,-1068.91 1424.01,-1063.91 1424.01,-1063.91"/>
</g>
<!-- Mage_Poll&#45;&gt;Mage_Cms -->
<g id="edge50" class="edge"><title>Mage_Poll&#45;&gt;Mage_Cms</title>
<path fill="none" stroke="#dddddd" d="M1626.72,-1104.11C1663.61,-977.657 1882.63,-226.851 1925.71,-79.1473"/>
<polygon fill="#dddddd" stroke="#dddddd" points="1927.74,-72.1884 1928.81,-79.7904 1926.76,-75.5483 1925.78,-78.9083 1925.78,-78.9083 1925.78,-78.9083 1926.76,-75.5483 1922.76,-78.0262 1927.74,-72.1884 1927.74,-72.1884"/>
</g>
<!-- Mage_GoogleCheckout -->
<g id="node30" class="node"><title>Mage_GoogleCheckout</title>
<polygon fill="#dddddd" stroke="none" points="1084.62,-292.321 911.616,-292.321 911.616,-256.321 1084.62,-256.321 1084.62,-292.321"/>
<text text-anchor="middle" x="998.116" y="-270.621" font-family="verdana" font-size="14.00">Mage_GoogleCheckout</text>
</g>
<!-- Mage_GoogleCheckout&#45;&gt;Mage_Payment -->
<g id="edge52" class="edge"><title>Mage_GoogleCheckout&#45;&gt;Mage_Payment</title>
<path fill="none" stroke="#dddddd" d="M911.184,-283.01C851.64,-288.961 773.767,-296.744 718.602,-302.258"/>
<polygon fill="#dddddd" stroke="#dddddd" points="711.312,-302.986 717.964,-299.156 714.795,-302.638 718.278,-302.29 718.278,-302.29 718.278,-302.29 714.795,-302.638 718.591,-305.424 711.312,-302.986 711.312,-302.986"/>
</g>
<!-- Mage_GoogleCheckout&#45;&gt;Mage_Sales -->
<g id="edge51" class="edge"><title>Mage_GoogleCheckout&#45;&gt;Mage_Sales</title>
<path fill="none" stroke="#dddddd" d="M1007.08,-292.366C1023.29,-324.994 1057.5,-393.841 1075.88,-430.841"/>
<polygon fill="#dddddd" stroke="#dddddd" points="1079.12,-437.363 1073.18,-432.496 1077.56,-434.229 1076,-431.094 1076,-431.094 1076,-431.094 1077.56,-434.229 1078.83,-429.693 1079.12,-437.363 1079.12,-437.363"/>
</g>
<!-- Mage_GoogleCheckout&#45;&gt;Mage_Usa -->
<g id="edge53" class="edge"><title>Mage_GoogleCheckout&#45;&gt;Mage_Usa</title>
<path fill="none" stroke="#dddddd" d="M975.461,-255.975C922.25,-212.884 789.405,-105.304 731.211,-58.1788"/>
<polygon fill="#dddddd" stroke="#dddddd" points="725.486,-53.5424 732.908,-55.4997 728.206,-55.7451 730.926,-57.9477 730.926,-57.9477 730.926,-57.9477 728.206,-55.7451 728.944,-60.3957 725.486,-53.5424 725.486,-53.5424"/>
</g>
<!-- Mage_Log -->
<g id="node31" class="node"><title>Mage_Log</title>
<polygon fill="#dddddd" stroke="none" points="1272.54,-581.117 1186.54,-581.117 1186.54,-545.117 1272.54,-545.117 1272.54,-581.117"/>
<text text-anchor="middle" x="1229.54" y="-559.417" font-family="verdana" font-size="14.00">Mage_Log</text>
</g>
<!-- Mage_Log&#45;&gt;Mage_Core -->
<g id="edge54" class="edge"><title>Mage_Log&#45;&gt;Mage_Core</title>
<path fill="none" stroke="#dddddd" d="M1235.07,-581.321C1257.77,-656.066 1343.82,-939.488 1369.89,-1025.35"/>
<polygon fill="#dddddd" stroke="#dddddd" points="1371.94,-1032.11 1366.89,-1026.33 1370.92,-1028.76 1369.9,-1025.42 1369.9,-1025.42 1369.9,-1025.42 1370.92,-1028.76 1372.92,-1024.5 1371.94,-1032.11 1371.94,-1032.11"/>
</g>
<!-- Mage_Log&#45;&gt;Mage_Customer -->
<g id="edge55" class="edge"><title>Mage_Log&#45;&gt;Mage_Customer</title>
<path fill="none" stroke="#dddddd" d="M1186.35,-566.945C1153.21,-569.882 1106.74,-573.999 1068.14,-577.42"/>
<polygon fill="#dddddd" stroke="#dddddd" points="1061.03,-578.05 1067.72,-574.294 1064.51,-577.741 1068,-577.432 1068,-577.432 1068,-577.432 1064.51,-577.741 1068.28,-580.57 1061.03,-578.05 1061.03,-578.05"/>
</g>
<!-- Mage_Review -->
<g id="node32" class="node"><title>Mage_Review</title>
<polygon fill="#dddddd" stroke="none" points="1629.41,-1389.68 1518.41,-1389.68 1518.41,-1353.68 1629.41,-1353.68 1629.41,-1389.68"/>
<text text-anchor="middle" x="1573.91" y="-1367.98" font-family="verdana" font-size="14.00">Mage_Review</text>
</g>
<!-- Mage_Review&#45;&gt;Mage_Core -->
<g id="edge57" class="edge"><title>Mage_Review&#45;&gt;Mage_Core</title>
<path fill="none" stroke="#dddddd" d="M1562.78,-1353.47C1529.34,-1298.76 1429.76,-1135.8 1392.08,-1074.14"/>
<polygon fill="#dddddd" stroke="#dddddd" points="1388.42,-1068.16 1394.76,-1072.49 1390.24,-1071.14 1392.07,-1074.13 1392.07,-1074.13 1392.07,-1074.13 1390.24,-1071.14 1389.38,-1075.77 1388.42,-1068.16 1388.42,-1068.16"/>
</g>
<!-- Mage_Review&#45;&gt;Mage_Catalog -->
<g id="edge56" class="edge"><title>Mage_Review&#45;&gt;Mage_Catalog</title>
<path fill="none" stroke="#dddddd" d="M1541.96,-1353.57C1388.75,-1266.75 729.791,-893.344 563.72,-799.237"/>
<polygon fill="#dddddd" stroke="#dddddd" points="557.56,-795.746 565.203,-796.457 560.605,-797.472 563.65,-799.198 563.65,-799.198 563.65,-799.198 560.605,-797.472 562.097,-801.938 557.56,-795.746 557.56,-795.746"/>
</g>
<!-- Mage_Rating -->
<g id="node33" class="node"><title>Mage_Rating</title>
<polygon fill="#dddddd" stroke="none" points="1374.65,-1351.08 1268.65,-1351.08 1268.65,-1315.08 1374.65,-1315.08 1374.65,-1351.08"/>
<text text-anchor="middle" x="1321.65" y="-1329.38" font-family="verdana" font-size="14.00">Mage_Rating</text>
</g>
<!-- Mage_Rating&#45;&gt;Mage_Core -->
<g id="edge58" class="edge"><title>Mage_Rating&#45;&gt;Mage_Core</title>
<path fill="none" stroke="#dddddd" d="M1325.22,-1314.95C1334.84,-1266.16 1361.29,-1131.96 1372.4,-1075.6"/>
<polygon fill="#dddddd" stroke="#dddddd" points="1373.8,-1068.49 1375.54,-1075.97 1373.12,-1071.93 1372.45,-1075.36 1372.45,-1075.36 1372.45,-1075.36 1373.12,-1071.93 1369.35,-1074.75 1373.8,-1068.49 1373.8,-1068.49"/>
</g>
<!-- Mage_Rating&#45;&gt;Mage_Review -->
<g id="edge59" class="edge"><title>Mage_Rating&#45;&gt;Mage_Review</title>
<path fill="none" stroke="#dddddd" d="M1374.84,-1341.22C1414.6,-1347.3 1469.1,-1355.64 1511.02,-1362.06"/>
<polygon fill="#dddddd" stroke="#dddddd" points="1518.17,-1363.15 1510.77,-1365.2 1514.71,-1362.62 1511.25,-1362.09 1511.25,-1362.09 1511.25,-1362.09 1514.71,-1362.62 1511.72,-1358.98 1518.17,-1363.15 1518.17,-1363.15"/>
</g>
<!-- Mage_Widget -->
<g id="node34" class="node"><title>Mage_Widget</title>
<polygon fill="#dddddd" stroke="none" points="1700.79,-557.456 1590.79,-557.456 1590.79,-521.456 1700.79,-521.456 1700.79,-557.456"/>
<text text-anchor="middle" x="1645.79" y="-535.756" font-family="verdana" font-size="14.00">Mage_Widget</text>
</g>
<!-- Mage_Widget&#45;&gt;Mage_Cms -->
<g id="edge60" class="edge"><title>Mage_Widget&#45;&gt;Mage_Cms</title>
<path fill="none" stroke="#dddddd" d="M1656.53,-521.309C1700.66,-446.73 1868.09,-163.752 1918.57,-78.4286"/>
<polygon fill="#dddddd" stroke="#dddddd" points="1922.28,-72.1697 1921.42,-79.7982 1920.49,-75.1819 1918.71,-78.1942 1918.71,-78.1942 1918.71,-78.1942 1920.49,-75.1819 1916,-76.5901 1922.28,-72.1697 1922.28,-72.1697"/>
</g>
<!-- Mage_Tag -->
<g id="node35" class="node"><title>Mage_Tag</title>
<polygon fill="#dddddd" stroke="none" points="457.987,-1045.07 373.987,-1045.07 373.987,-1009.07 457.987,-1009.07 457.987,-1045.07"/>
<text text-anchor="middle" x="415.987" y="-1023.37" font-family="verdana" font-size="14.00">Mage_Tag</text>
</g>
<!-- Mage_Tag&#45;&gt;Mage_Catalog -->
<g id="edge61" class="edge"><title>Mage_Tag&#45;&gt;Mage_Catalog</title>
<path fill="none" stroke="#dddddd" d="M424.048,-1008.73C443.456,-964.569 492.8,-852.289 514.77,-802.298"/>
<polygon fill="#dddddd" stroke="#dddddd" points="517.682,-795.671 517.749,-803.347 516.274,-798.876 514.866,-802.08 514.866,-802.08 514.866,-802.08 516.274,-798.876 511.982,-800.813 517.682,-795.671 517.682,-795.671"/>
</g>
<!-- Mage_Reports -->
<g id="node36" class="node"><title>Mage_Reports</title>
<polygon fill="#dddddd" stroke="none" points="1471.47,-488.568 1358.47,-488.568 1358.47,-452.568 1471.47,-452.568 1471.47,-488.568"/>
<text text-anchor="middle" x="1414.97" y="-466.868" font-family="verdana" font-size="14.00">Mage_Reports</text>
</g>
<!-- Mage_Reports&#45;&gt;Mage_Cms -->
<g id="edge65" class="edge"><title>Mage_Reports&#45;&gt;Mage_Cms</title>
<path fill="none" stroke="#dddddd" d="M1437.56,-452.398C1521.22,-385.127 1813.22,-150.311 1905.14,-76.3911"/>
<polygon fill="#dddddd" stroke="#dddddd" points="1910.64,-71.9627 1907.16,-78.8042 1907.92,-74.156 1905.19,-76.3494 1905.19,-76.3494 1905.19,-76.3494 1907.92,-74.156 1903.22,-73.8947 1910.64,-71.9627 1910.64,-71.9627"/>
</g>
<!-- Mage_Reports&#45;&gt;Mage_Customer -->
<g id="edge62" class="edge"><title>Mage_Reports&#45;&gt;Mage_Customer</title>
<path fill="none" stroke="#dddddd" d="M1358.16,-485.946C1282.82,-506.342 1149.86,-542.337 1067.99,-564.503"/>
<polygon fill="#dddddd" stroke="#dddddd" points="1061.2,-566.339 1067.14,-561.469 1064.58,-565.424 1067.96,-564.51 1067.96,-564.51 1067.96,-564.51 1064.58,-565.424 1068.78,-567.55 1061.2,-566.339 1061.2,-566.339"/>
</g>
<!-- Mage_Reports&#45;&gt;Mage_Catalog -->
<g id="edge63" class="edge"><title>Mage_Reports&#45;&gt;Mage_Catalog</title>
<path fill="none" stroke="#dddddd" d="M1362.65,-488.63C1207.12,-542.331 748.235,-700.772 584.491,-757.308"/>
<polygon fill="#dddddd" stroke="#dddddd" points="577.854,-759.6 583.443,-754.338 581.162,-758.458 584.471,-757.315 584.471,-757.315 584.471,-757.315 581.162,-758.458 585.499,-760.293 577.854,-759.6 577.854,-759.6"/>
</g>
<!-- Mage_Reports&#45;&gt;Mage_Sales -->
<g id="edge64" class="edge"><title>Mage_Reports&#45;&gt;Mage_Sales</title>
<path fill="none" stroke="#dddddd" d="M1358.42,-467.978C1298.3,-465.225 1203.8,-460.899 1143.97,-458.159"/>
<polygon fill="#dddddd" stroke="#dddddd" points="1136.85,-457.833 1143.99,-455.007 1140.35,-457.993 1143.85,-458.153 1143.85,-458.153 1143.85,-458.153 1140.35,-457.993 1143.7,-461.3 1136.85,-457.833 1136.85,-457.833"/>
</g>
<!-- Mage_GoogleAnalytics -->
<g id="node37" class="node"><title>Mage_GoogleAnalytics</title>
<polygon fill="#dddddd" stroke="none" points="1275.68,-1135.88 1104.68,-1135.88 1104.68,-1099.88 1275.68,-1099.88 1275.68,-1135.88"/>
<text text-anchor="middle" x="1190.18" y="-1114.18" font-family="verdana" font-size="14.00">Mage_GoogleAnalytics</text>
</g>
<!-- Mage_GoogleAnalytics&#45;&gt;Mage_Core -->
<g id="edge66" class="edge"><title>Mage_GoogleAnalytics&#45;&gt;Mage_Core</title>
<path fill="none" stroke="#dddddd" d="M1240.36,-1099.73C1266.11,-1090.41 1297.5,-1079.06 1323.74,-1069.57"/>
<polygon fill="#dddddd" stroke="#dddddd" points="1330.64,-1067.07 1325.13,-1072.41 1327.35,-1068.26 1324.06,-1069.45 1324.06,-1069.45 1324.06,-1069.45 1327.35,-1068.26 1322.99,-1066.49 1330.64,-1067.07 1330.64,-1067.07"/>
</g>
<!-- Mage_Tax -->
<g id="node38" class="node"><title>Mage_Tax</title>
<polygon fill="#dddddd" stroke="none" points="1151.76,-659.882 1067.76,-659.882 1067.76,-623.882 1151.76,-623.882 1151.76,-659.882"/>
<text text-anchor="middle" x="1109.76" y="-638.182" font-family="verdana" font-size="14.00">Mage_Tax</text>
</g>
<!-- Mage_Tax&#45;&gt;Mage_Customer -->
<g id="edge68" class="edge"><title>Mage_Tax&#45;&gt;Mage_Customer</title>
<path fill="none" stroke="#dddddd" d="M1074.7,-623.8C1063.24,-617.892 1050.4,-611.273 1038.52,-605.144"/>
<polygon fill="#dddddd" stroke="#dddddd" points="1032.03,-601.796 1039.69,-602.205 1035.14,-603.401 1038.25,-605.005 1038.25,-605.005 1038.25,-605.005 1035.14,-603.401 1036.8,-607.804 1032.03,-601.796 1032.03,-601.796"/>
</g>
<!-- Mage_Tax&#45;&gt;Mage_Catalog -->
<g id="edge67" class="edge"><title>Mage_Tax&#45;&gt;Mage_Catalog</title>
<path fill="none" stroke="#dddddd" d="M1067.75,-651.646C966.691,-675.132 709.503,-734.902 589.315,-762.834"/>
<polygon fill="#dddddd" stroke="#dddddd" points="582.298,-764.464 588.403,-759.811 585.707,-763.672 589.116,-762.88 589.116,-762.88 589.116,-762.88 585.707,-763.672 589.83,-765.948 582.298,-764.464 582.298,-764.464"/>
</g>
<!-- Mage_Wishlist -->
<g id="node39" class="node"><title>Mage_Wishlist</title>
<polygon fill="#dddddd" stroke="none" points="1445.69,-666.938 1329.69,-666.938 1329.69,-630.938 1445.69,-630.938 1445.69,-666.938"/>
<text text-anchor="middle" x="1387.69" y="-645.238" font-family="verdana" font-size="14.00">Mage_Wishlist</text>
</g>
<!-- Mage_Wishlist&#45;&gt;Mage_Customer -->
<g id="edge69" class="edge"><title>Mage_Wishlist&#45;&gt;Mage_Customer</title>
<path fill="none" stroke="#dddddd" d="M1329.62,-639.245C1260.01,-627.627 1143.39,-608.162 1068.36,-595.638"/>
<polygon fill="#dddddd" stroke="#dddddd" points="1061.23,-594.448 1068.65,-592.494 1064.68,-595.025 1068.13,-595.601 1068.13,-595.601 1068.13,-595.601 1064.68,-595.025 1067.61,-598.708 1061.23,-594.448 1061.23,-594.448"/>
</g>
<!-- Mage_Wishlist&#45;&gt;Mage_Catalog -->
<g id="edge70" class="edge"><title>Mage_Wishlist&#45;&gt;Mage_Catalog</title>
<path fill="none" stroke="#dddddd" d="M1329.45,-657.632C1174.13,-680.821 750.866,-744.01 589.377,-768.119"/>
<polygon fill="#dddddd" stroke="#dddddd" points="582.35,-769.168 588.808,-765.019 585.811,-768.651 589.273,-768.135 589.273,-768.135 589.273,-768.135 585.811,-768.651 589.738,-771.25 582.35,-769.168 582.35,-769.168"/>
</g>
<!-- Mage_PaypalUk -->
<g id="node40" class="node"><title>Mage_PaypalUk</title>
<polygon fill="#dddddd" stroke="none" points="1154.68,-36.0089 1029.68,-36.0089 1029.68,-0.00891523 1154.68,-0.00891523 1154.68,-36.0089"/>
<text text-anchor="middle" x="1092.18" y="-14.3089" font-family="verdana" font-size="14.00">Mage_PaypalUk</text>
</g>
<!-- Mage_PaypalUk&#45;&gt;Mage_Sales -->
<g id="edge73" class="edge"><title>Mage_PaypalUk&#45;&gt;Mage_Sales</title>
<path fill="none" stroke="#dddddd" d="M1092.01,-36.2547C1091.38,-105.203 1089.15,-349.996 1088.42,-430.058"/>
<polygon fill="#dddddd" stroke="#dddddd" points="1088.35,-437.281 1085.26,-430.252 1088.38,-433.781 1088.41,-430.281 1088.41,-430.281 1088.41,-430.281 1088.38,-433.781 1091.56,-430.31 1088.35,-437.281 1088.35,-437.281"/>
</g>
<!-- Mage_PaypalUk&#45;&gt;Mage_Paygate -->
<g id="edge71" class="edge"><title>Mage_PaypalUk&#45;&gt;Mage_Paygate</title>
<path fill="none" stroke="#dddddd" d="M1029.57,-20.4869C907.359,-25.3242 638.122,-35.9808 513.752,-40.9034"/>
<polygon fill="#dddddd" stroke="#dddddd" points="506.494,-41.1907 513.364,-37.7662 509.991,-41.0522 513.488,-40.9138 513.488,-40.9138 513.488,-40.9138 509.991,-41.0522 513.613,-44.0613 506.494,-41.1907 506.494,-41.1907"/>
</g>
<!-- Mage_PaypalUk&#45;&gt;Mage_Checkout -->
<g id="edge72" class="edge"><title>Mage_PaypalUk&#45;&gt;Mage_Checkout</title>
<path fill="none" stroke="#dddddd" d="M1084.06,-36.4047C1034.4,-149.012 771.673,-744.671 714.639,-873.98"/>
<polygon fill="#dddddd" stroke="#dddddd" points="711.777,-880.468 711.72,-872.792 713.19,-877.266 714.602,-874.063 714.602,-874.063 714.602,-874.063 713.19,-877.266 717.484,-875.334 711.777,-880.468 711.777,-880.468"/>
</g>
<!-- Mage_PaypalUk&#45;&gt;Mage_Paypal -->
<g id="edge74" class="edge"><title>Mage_PaypalUk&#45;&gt;Mage_Paypal</title>
<path fill="none" stroke="#dddddd" d="M1029.65,-21.9287C1008.95,-23.2267 985.957,-24.6678 965.427,-25.9548"/>
<polygon fill="#dddddd" stroke="#dddddd" points="958.276,-26.4032 965.065,-22.8213 961.769,-26.1841 965.262,-25.9651 965.262,-25.9651 965.262,-25.9651 961.769,-26.1841 965.459,-29.1089 958.276,-26.4032 958.276,-26.4032"/>
</g>
<!-- Mage_Media -->
<g id="node41" class="node"><title>Mage_Media</title>
<polygon fill="#dddddd" stroke="none" points="1164.78,-1396.88 1063.78,-1396.88 1063.78,-1360.88 1164.78,-1360.88 1164.78,-1396.88"/>
<text text-anchor="middle" x="1114.28" y="-1375.18" font-family="verdana" font-size="14.00">Mage_Media</text>
</g>
<!-- Mage_Media&#45;&gt;Mage_Core -->
<g id="edge75" class="edge"><title>Mage_Media&#45;&gt;Mage_Core</title>
<path fill="none" stroke="#dddddd" d="M1128.8,-1360.74C1173.37,-1305.06 1308.2,-1136.62 1358.35,-1073.96"/>
<polygon fill="#dddddd" stroke="#dddddd" points="1362.94,-1068.24 1361.02,-1075.67 1360.75,-1070.97 1358.56,-1073.7 1358.56,-1073.7 1358.56,-1073.7 1360.75,-1070.97 1356.1,-1071.73 1362.94,-1068.24 1362.94,-1068.24"/>
</g>
<!-- Mage_GiftMessage -->
<g id="node42" class="node"><title>Mage_GiftMessage</title>
<polygon fill="#dddddd" stroke="none" points="1237.12,-254.961 1092.12,-254.961 1092.12,-218.961 1237.12,-218.961 1237.12,-254.961"/>
<text text-anchor="middle" x="1164.62" y="-233.261" font-family="verdana" font-size="14.00">Mage_GiftMessage</text>
</g>
<!-- Mage_GiftMessage&#45;&gt;Mage_Catalog -->
<g id="edge76" class="edge"><title>Mage_GiftMessage&#45;&gt;Mage_Catalog</title>
<path fill="none" stroke="#dddddd" d="M1142.99,-255.26C1046.83,-336.629 658.109,-665.528 552.307,-755.048"/>
<polygon fill="#dddddd" stroke="#dddddd" points="546.903,-759.621 550.212,-752.694 549.575,-757.36 552.246,-755.099 552.246,-755.099 552.246,-755.099 549.575,-757.36 554.281,-757.504 546.903,-759.621 546.903,-759.621"/>
</g>
<!-- Mage_GiftMessage&#45;&gt;Mage_Sales -->
<g id="edge77" class="edge"><title>Mage_GiftMessage&#45;&gt;Mage_Sales</title>
<path fill="none" stroke="#dddddd" d="M1158.24,-255.226C1144.54,-294.39 1112.35,-386.478 1096.84,-430.849"/>
<polygon fill="#dddddd" stroke="#dddddd" points="1094.5,-437.545 1093.83,-429.897 1095.65,-434.241 1096.81,-430.937 1096.81,-430.937 1096.81,-430.937 1095.65,-434.241 1099.78,-431.977 1094.5,-437.545 1094.5,-437.545"/>
</g>
<!-- Mage_Contacts -->
<g id="node43" class="node"><title>Mage_Contacts</title>
<polygon fill="#dddddd" stroke="none" points="1136.06,-969.602 1014.06,-969.602 1014.06,-933.602 1136.06,-933.602 1136.06,-969.602"/>
<text text-anchor="middle" x="1075.06" y="-947.902" font-family="verdana" font-size="14.00">Mage_Contacts</text>
</g>
<!-- Mage_Contacts&#45;&gt;Mage_Core -->
<g id="edge78" class="edge"><title>Mage_Contacts&#45;&gt;Mage_Core</title>
<path fill="none" stroke="#dddddd" d="M1130.52,-969.677C1185.61,-987.635 1269.53,-1014.98 1323.92,-1032.71"/>
<polygon fill="#dddddd" stroke="#dddddd" points="1330.74,-1034.94 1323.1,-1035.76 1327.41,-1033.85 1324.08,-1032.77 1324.08,-1032.77 1324.08,-1032.77 1327.41,-1033.85 1325.06,-1029.77 1330.74,-1034.94 1330.74,-1034.94"/>
</g>
<!-- Mage_Sendfriend -->
<g id="node44" class="node"><title>Mage_Sendfriend</title>
<polygon fill="#dddddd" stroke="none" points="149.94,-1033.23 14.9403,-1033.23 14.9403,-997.232 149.94,-997.232 149.94,-1033.23"/>
<text text-anchor="middle" x="82.4403" y="-1011.53" font-family="verdana" font-size="14.00">Mage_Sendfriend</text>
</g>
<!-- Mage_Sendfriend&#45;&gt;Mage_Catalog -->
<g id="edge79" class="edge"><title>Mage_Sendfriend&#45;&gt;Mage_Catalog</title>
<path fill="none" stroke="#dddddd" d="M116.114,-997.179C196.514,-954.075 399.395,-845.305 485.726,-799.021"/>
<polygon fill="#dddddd" stroke="#dddddd" points="491.985,-795.665 487.304,-801.749 488.9,-797.319 485.815,-798.973 485.815,-798.973 485.815,-798.973 488.9,-797.319 484.327,-796.196 491.985,-795.665 491.985,-795.665"/>
</g>
<!-- Mage_Sitemap -->
<g id="node45" class="node"><title>Mage_Sitemap</title>
<polygon fill="#dddddd" stroke="none" points="334.609,-822.232 217.609,-822.232 217.609,-786.232 334.609,-786.232 334.609,-822.232"/>
<text text-anchor="middle" x="276.109" y="-800.532" font-family="verdana" font-size="14.00">Mage_Sitemap</text>
</g>
<!-- Mage_Sitemap&#45;&gt;Mage_Catalog -->
<g id="edge80" class="edge"><title>Mage_Sitemap&#45;&gt;Mage_Catalog</title>
<path fill="none" stroke="#dddddd" d="M334.921,-797.964C373.032,-793.902 422.664,-788.612 461.739,-784.447"/>
<polygon fill="#dddddd" stroke="#dddddd" points="468.907,-783.683 462.28,-787.557 465.427,-784.054 461.947,-784.425 461.947,-784.425 461.947,-784.425 465.427,-784.054 461.613,-781.292 468.907,-783.683 468.907,-783.683"/>
</g>
<!-- Mage_Rss -->
<g id="node46" class="node"><title>Mage_Rss</title>
<polygon fill="#dddddd" stroke="none" points="1352.64,-36 1268.64,-36 1268.64,-0 1352.64,-0 1352.64,-36"/>
<text text-anchor="middle" x="1310.64" y="-14.3" font-family="verdana" font-size="14.00">Mage_Rss</text>
</g>
<!-- Mage_Rss&#45;&gt;Mage_Catalog -->
<g id="edge81" class="edge"><title>Mage_Rss&#45;&gt;Mage_Catalog</title>
<path fill="none" stroke="#dddddd" d="M1292.01,-36.0285C1186.87,-137.766 668.25,-639.61 549.749,-754.278"/>
<polygon fill="#dddddd" stroke="#dddddd" points="544.412,-759.443 547.252,-752.311 546.927,-757.009 549.442,-754.575 549.442,-754.575 549.442,-754.575 546.927,-757.009 551.633,-756.838 544.412,-759.443 544.412,-759.443"/>
</g>
<!-- Mage_Rss&#45;&gt;Mage_Sales -->
<g id="edge83" class="edge"><title>Mage_Rss&#45;&gt;Mage_Sales</title>
<path fill="none" stroke="#dddddd" d="M1301.37,-36.2462C1266.17,-105.473 1140.87,-351.971 1100.68,-431.018"/>
<polygon fill="#dddddd" stroke="#dddddd" points="1097.5,-437.28 1097.86,-429.613 1099.08,-434.16 1100.67,-431.04 1100.67,-431.04 1100.67,-431.04 1099.08,-434.16 1103.48,-432.468 1097.5,-437.28 1097.5,-437.28"/>
</g>
<!-- Mage_Rss&#45;&gt;Mage_CatalogInventory -->
<g id="edge82" class="edge"><title>Mage_Rss&#45;&gt;Mage_CatalogInventory</title>
<path fill="none" stroke="#dddddd" d="M1299.32,-36.4189C1219.93,-165.54 747.394,-934.125 656.989,-1081.17"/>
<polygon fill="#dddddd" stroke="#dddddd" points="653.213,-1087.31 654.195,-1079.7 655.046,-1084.33 656.879,-1081.35 656.879,-1081.35 656.879,-1081.35 655.046,-1084.33 659.562,-1083 653.213,-1087.31 653.213,-1087.31"/>
</g>
<!-- Mage_Rss&#45;&gt;Mage_SalesRule -->
<g id="edge84" class="edge"><title>Mage_Rss&#45;&gt;Mage_SalesRule</title>
<path fill="none" stroke="#dddddd" d="M1276.66,-36.0535C1190.86,-81.6287 965.791,-201.192 873.317,-250.315"/>
<polygon fill="#dddddd" stroke="#dddddd" points="866.892,-253.728 871.596,-247.663 869.983,-252.086 873.074,-250.444 873.074,-250.444 873.074,-250.444 869.983,-252.086 874.552,-253.226 866.892,-253.728 866.892,-253.728"/>
</g>
<!-- Mage_Rss&#45;&gt;Mage_Wishlist -->
<g id="edge85" class="edge"><title>Mage_Rss&#45;&gt;Mage_Wishlist</title>
<path fill="none" stroke="#dddddd" d="M1312.87,-36.2023C1323.8,-125.782 1371.91,-519.678 1384.61,-623.682"/>
<polygon fill="#dddddd" stroke="#dddddd" points="1385.46,-630.662 1381.48,-624.095 1385.04,-627.187 1384.61,-623.713 1384.61,-623.713 1384.61,-623.713 1385.04,-627.187 1387.74,-623.331 1385.46,-630.662 1385.46,-630.662"/>
</g>
<!-- Mage_ProductAlert -->
<g id="node47" class="node"><title>Mage_ProductAlert</title>
<polygon fill="#dddddd" stroke="none" points="1297.62,-748.754 1149.62,-748.754 1149.62,-712.754 1297.62,-712.754 1297.62,-748.754"/>
<text text-anchor="middle" x="1223.62" y="-727.054" font-family="verdana" font-size="14.00">Mage_ProductAlert</text>
</g>
<!-- Mage_ProductAlert&#45;&gt;Mage_Customer -->
<g id="edge87" class="edge"><title>Mage_ProductAlert&#45;&gt;Mage_Customer</title>
<path fill="none" stroke="#dddddd" d="M1195.83,-712.726C1154.29,-685.774 1076.08,-635.036 1031.12,-605.869"/>
<polygon fill="#dddddd" stroke="#dddddd" points="1025,-601.901 1032.59,-603.068 1027.94,-603.806 1030.87,-605.711 1030.87,-605.711 1030.87,-605.711 1027.94,-603.806 1029.16,-608.354 1025,-601.901 1025,-601.901"/>
</g>
<!-- Mage_ProductAlert&#45;&gt;Mage_Catalog -->
<g id="edge86" class="edge"><title>Mage_ProductAlert&#45;&gt;Mage_Catalog</title>
<path fill="none" stroke="#dddddd" d="M1149.58,-735.727C1012.01,-744.968 719.217,-764.635 589.615,-773.34"/>
<polygon fill="#dddddd" stroke="#dddddd" points="582.442,-773.822 589.215,-770.21 585.934,-773.587 589.426,-773.353 589.426,-773.353 589.426,-773.353 585.934,-773.587 589.637,-776.496 582.442,-773.822 582.442,-773.822"/>
</g>
<!-- Mage_Api -->
<g id="node48" class="node"><title>Mage_Api</title>
<polygon fill="#dddddd" stroke="none" points="1049.99,-1151.07 966.992,-1151.07 966.992,-1115.07 1049.99,-1115.07 1049.99,-1151.07"/>
<text text-anchor="middle" x="1008.49" y="-1129.37" font-family="verdana" font-size="14.00">Mage_Api</text>
</g>
<!-- Mage_Api&#45;&gt;Mage_Core -->
<g id="edge88" class="edge"><title>Mage_Api&#45;&gt;Mage_Core</title>
<path fill="none" stroke="#dddddd" d="M1050.1,-1123.72C1117.27,-1108.62 1249.59,-1078.88 1323.77,-1062.21"/>
<polygon fill="#dddddd" stroke="#dddddd" points="1330.76,-1060.64 1324.62,-1065.24 1327.35,-1061.4 1323.93,-1062.17 1323.93,-1062.17 1323.93,-1062.17 1327.35,-1061.4 1323.24,-1059.1 1330.76,-1060.64 1330.76,-1060.64"/>
</g>
<!-- Mage_Oauth -->
<g id="node49" class="node"><title>Mage_Oauth</title>
<polygon fill="#dddddd" stroke="none" points="965.277,-1372.66 861.277,-1372.66 861.277,-1336.66 965.277,-1336.66 965.277,-1372.66"/>
<text text-anchor="middle" x="913.277" y="-1350.96" font-family="verdana" font-size="14.00">Mage_Oauth</text>
</g>
<!-- Mage_Oauth&#45;&gt;Mage_Core -->
<g id="edge89" class="edge"><title>Mage_Oauth&#45;&gt;Mage_Core</title>
<path fill="none" stroke="#dddddd" d="M940.921,-1336.53C1021.54,-1283.64 1256.2,-1129.68 1343.86,-1072.16"/>
<polygon fill="#dddddd" stroke="#dddddd" points="1349.92,-1068.19 1345.79,-1074.67 1346.99,-1070.11 1344.06,-1072.03 1344.06,-1072.03 1344.06,-1072.03 1346.99,-1070.11 1342.33,-1069.4 1349.92,-1068.19 1349.92,-1068.19"/>
</g>
<!-- Mage_Authorizenet -->
<g id="node50" class="node"><title>Mage_Authorizenet</title>
<polygon fill="#dddddd" stroke="none" points="1313.77,-423.126 1161.77,-423.126 1161.77,-387.126 1313.77,-387.126 1313.77,-423.126"/>
<text text-anchor="middle" x="1237.77" y="-401.426" font-family="verdana" font-size="14.00">Mage_Authorizenet</text>
</g>
<!-- Mage_Authorizenet&#45;&gt;Mage_Sales -->
<g id="edge91" class="edge"><title>Mage_Authorizenet&#45;&gt;Mage_Sales</title>
<path fill="none" stroke="#dddddd" d="M1184.19,-423.207C1171.05,-427.64 1156.96,-432.393 1143.74,-436.857"/>
<polygon fill="#dddddd" stroke="#dddddd" points="1136.91,-439.161 1142.53,-433.938 1140.23,-438.042 1143.54,-436.923 1143.54,-436.923 1143.54,-436.923 1140.23,-438.042 1144.55,-439.907 1136.91,-439.161 1136.91,-439.161"/>
</g>
<!-- Mage_Authorizenet&#45;&gt;Mage_Paygate -->
<g id="edge90" class="edge"><title>Mage_Authorizenet&#45;&gt;Mage_Paygate</title>
<path fill="none" stroke="#dddddd" d="M1198.35,-387.068C1065.73,-326.31 636.074,-129.465 494.284,-64.5046"/>
<polygon fill="#dddddd" stroke="#dddddd" points="487.752,-61.512 495.428,-61.5639 490.934,-62.9698 494.116,-64.4277 494.116,-64.4277 494.116,-64.4277 490.934,-62.9698 492.804,-67.2914 487.752,-61.512 487.752,-61.512"/>
</g>
<!-- Mage_Authorizenet&#45;&gt;Mage_Checkout -->
<g id="edge92" class="edge"><title>Mage_Authorizenet&#45;&gt;Mage_Checkout</title>
<path fill="none" stroke="#dddddd" d="M1218.13,-423.28C1135.93,-499.258 819.577,-791.664 728.421,-875.92"/>
<polygon fill="#dddddd" stroke="#dddddd" points="723.245,-880.704 726.248,-873.64 725.815,-878.329 728.386,-875.953 728.386,-875.953 728.386,-875.953 725.815,-878.329 730.524,-878.266 723.245,-880.704 723.245,-880.704"/>
</g>
<!-- Mage_Bundle -->
<g id="node51" class="node"><title>Mage_Bundle</title>
<polygon fill="#dddddd" stroke="none" points="114.424,-675.129 5.42352,-675.129 5.42352,-639.129 114.424,-639.129 114.424,-675.129"/>
<text text-anchor="middle" x="59.9235" y="-653.429" font-family="verdana" font-size="14.00">Mage_Bundle</text>
</g>
<!-- Mage_Bundle&#45;&gt;Mage_Catalog -->
<g id="edge93" class="edge"><title>Mage_Bundle&#45;&gt;Mage_Catalog</title>
<path fill="none" stroke="#dddddd" d="M114.713,-671.307C201.413,-693.744 369.809,-737.322 461.816,-761.132"/>
<polygon fill="#dddddd" stroke="#dddddd" points="468.849,-762.952 461.283,-764.247 465.46,-762.075 462.072,-761.198 462.072,-761.198 462.072,-761.198 465.46,-762.075 462.861,-758.148 468.849,-762.952 468.849,-762.952"/>
</g>
<!-- Mage_Captcha -->
<g id="node52" class="node"><title>Mage_Captcha</title>
<polygon fill="#dddddd" stroke="none" points="1035.66,-737.793 918.664,-737.793 918.664,-701.793 1035.66,-701.793 1035.66,-737.793"/>
<text text-anchor="middle" x="977.164" y="-716.093" font-family="verdana" font-size="14.00">Mage_Captcha</text>
</g>
<!-- Mage_Captcha&#45;&gt;Mage_Adminhtml -->
<g id="edge95" class="edge"><title>Mage_Captcha&#45;&gt;Mage_Adminhtml</title>
<path fill="none" stroke="#dddddd" d="M999.228,-738.09C1013.4,-749.844 1031.92,-765.198 1047.02,-777.728"/>
<polygon fill="#dddddd" stroke="#dddddd" points="1052.42,-782.204 1045.02,-780.16 1049.73,-779.97 1047.03,-777.735 1047.03,-777.735 1047.03,-777.735 1049.73,-779.97 1049.04,-775.311 1052.42,-782.204 1052.42,-782.204"/>
</g>
<!-- Mage_Captcha&#45;&gt;Mage_Customer -->
<g id="edge94" class="edge"><title>Mage_Captcha&#45;&gt;Mage_Customer</title>
<path fill="none" stroke="#dddddd" d="M979.795,-701.724C983.26,-677.936 989.37,-635.984 993.294,-609.042"/>
<polygon fill="#dddddd" stroke="#dddddd" points="994.339,-601.869 996.447,-609.25 993.834,-605.332 993.33,-608.796 993.33,-608.796 993.33,-608.796 993.834,-605.332 990.213,-608.341 994.339,-601.869 994.339,-601.869"/>
</g>
<!-- Mage_Centinel -->
<g id="node53" class="node"><title>Mage_Centinel</title>
<polygon fill="#dddddd" stroke="none" points="499.822,-1349.56 380.822,-1349.56 380.822,-1313.56 499.822,-1313.56 499.822,-1349.56"/>
<text text-anchor="middle" x="440.322" y="-1327.86" font-family="verdana" font-size="14.00">Mage_Centinel</text>
</g>
<!-- Mage_Centinel&#45;&gt;Mage_Payment -->
<g id="edge96" class="edge"><title>Mage_Centinel&#45;&gt;Mage_Payment</title>
<path fill="none" stroke="#dddddd" d="M444.052,-1313.38C469.32,-1190.2 615.329,-478.41 644.853,-334.48"/>
<polygon fill="#dddddd" stroke="#dddddd" points="646.325,-327.306 648.004,-334.796 645.622,-330.735 644.918,-334.163 644.918,-334.163 644.918,-334.163 645.622,-330.735 641.832,-333.53 646.325,-327.306 646.325,-327.306"/>
</g>
<!-- Mage_Centinel&#45;&gt;Mage_Checkout -->
<g id="edge97" class="edge"><title>Mage_Centinel&#45;&gt;Mage_Checkout</title>
<path fill="none" stroke="#dddddd" d="M451.304,-1313.52C492.971,-1245.05 641.333,-1001.26 688.91,-923.079"/>
<polygon fill="#dddddd" stroke="#dddddd" points="692.679,-916.885 691.731,-924.503 690.86,-919.875 689.04,-922.865 689.04,-922.865 689.04,-922.865 690.86,-919.875 686.349,-921.227 692.679,-916.885 692.679,-916.885"/>
</g>
<!-- Mage_Compiler -->
<g id="node54" class="node"><title>Mage_Compiler</title>
<polygon fill="#dddddd" stroke="none" points="894.061,-1114.61 772.061,-1114.61 772.061,-1078.61 894.061,-1078.61 894.061,-1114.61"/>
<text text-anchor="middle" x="833.061" y="-1092.91" font-family="verdana" font-size="14.00">Mage_Compiler</text>
</g>
<!-- Mage_Compiler&#45;&gt;Mage_Core -->
<g id="edge98" class="edge"><title>Mage_Compiler&#45;&gt;Mage_Core</title>
<path fill="none" stroke="#dddddd" d="M894.184,-1091.39C1001.46,-1082.24 1221.87,-1063.43 1323.68,-1054.74"/>
<polygon fill="#dddddd" stroke="#dddddd" points="1330.81,-1054.13 1324.1,-1057.86 1327.32,-1054.43 1323.83,-1054.72 1323.83,-1054.72 1323.83,-1054.72 1327.32,-1054.43 1323.56,-1051.58 1330.81,-1054.13 1330.81,-1054.13"/>
</g>
<!-- Mage_ConfigurableSwatches -->
<g id="node55" class="node"><title>Mage_ConfigurableSwatches</title>
<polygon fill="#dddddd" stroke="none" points="215,-381.5 1.13687e-13,-381.5 1.13687e-13,-345.5 215,-345.5 215,-381.5"/>
<text text-anchor="middle" x="107.5" y="-359.8" font-family="verdana" font-size="14.00">Mage_ConfigurableSwatches</text>
</g>
<!-- Mage_ConfigurableSwatches&#45;&gt;Mage_Catalog -->
<g id="edge99" class="edge"><title>Mage_ConfigurableSwatches&#45;&gt;Mage_Catalog</title>
<path fill="none" stroke="#dddddd" d="M125.734,-381.561C192.963,-448.152 426.944,-679.913 502.141,-754.396"/>
<polygon fill="#dddddd" stroke="#dddddd" points="507.276,-759.483 500.086,-756.795 504.79,-757.02 502.303,-754.557 502.303,-754.557 502.303,-754.557 504.79,-757.02 504.52,-752.319 507.276,-759.483 507.276,-759.483"/>
</g>
<!-- Mage_ConfigurableSwatches&#45;&gt;Mage_CatalogSearch -->
<g id="edge100" class="edge"><title>Mage_ConfigurableSwatches&#45;&gt;Mage_CatalogSearch</title>
<path fill="none" stroke="#dddddd" d="M107.666,-381.618C108.759,-500.58 114.899,-1169.38 116.186,-1309.53"/>
<polygon fill="#dddddd" stroke="#dddddd" points="116.254,-1316.91 113.04,-1309.94 116.222,-1313.41 116.189,-1309.91 116.189,-1309.91 116.189,-1309.91 116.222,-1313.41 119.339,-1309.88 116.254,-1316.91 116.254,-1316.91"/>
</g>
<!-- Mage_Newsletter -->
<g id="node56" class="node"><title>Mage_Newsletter</title>
<polygon fill="#dddddd" stroke="none" points="1457.98,-847.094 1320.98,-847.094 1320.98,-811.094 1457.98,-811.094 1457.98,-847.094"/>
<text text-anchor="middle" x="1389.48" y="-825.394" font-family="verdana" font-size="14.00">Mage_Newsletter</text>
</g>
<!-- Mage_Newsletter&#45;&gt;Mage_Eav -->
<g id="edge103" class="edge"><title>Mage_Newsletter&#45;&gt;Mage_Eav</title>
<path fill="none" stroke="#dddddd" d="M1320.97,-817.113C1184.95,-793.325 883.643,-740.63 764.097,-719.723"/>
<polygon fill="#dddddd" stroke="#dddddd" points="757.172,-718.512 764.61,-716.615 760.62,-719.115 764.068,-719.718 764.068,-719.718 764.068,-719.718 760.62,-719.115 763.525,-722.82 757.172,-718.512 757.172,-718.512"/>
</g>
<!-- Mage_Newsletter&#45;&gt;Mage_Core -->
<g id="edge101" class="edge"><title>Mage_Newsletter&#45;&gt;Mage_Core</title>
<path fill="none" stroke="#dddddd" d="M1388.49,-847.184C1386.34,-886.548 1381.24,-980.045 1378.78,-1025.07"/>
<polygon fill="#dddddd" stroke="#dddddd" points="1378.4,-1032.12 1375.63,-1024.96 1378.59,-1028.62 1378.78,-1025.13 1378.78,-1025.13 1378.78,-1025.13 1378.59,-1028.62 1381.93,-1025.3 1378.4,-1032.12 1378.4,-1032.12"/>
</g>
<!-- Mage_Newsletter&#45;&gt;Mage_Customer -->
<g id="edge102" class="edge"><title>Mage_Newsletter&#45;&gt;Mage_Customer</title>
<path fill="none" stroke="#dddddd" d="M1360.61,-811.051C1290.01,-766.916 1108.79,-653.623 1032.1,-605.68"/>
<polygon fill="#dddddd" stroke="#dddddd" points="1025.88,-601.794 1033.49,-602.834 1028.85,-603.65 1031.82,-605.505 1031.82,-605.505 1031.82,-605.505 1028.85,-603.65 1030.15,-608.176 1025.88,-601.794 1025.88,-601.794"/>
</g>
<!-- Mage_Newsletter&#45;&gt;Mage_Widget -->
<g id="edge104" class="edge"><title>Mage_Newsletter&#45;&gt;Mage_Widget</title>
<path fill="none" stroke="#dddddd" d="M1405.51,-810.976C1450.01,-760.688 1575.06,-619.387 1624.9,-563.063"/>
<polygon fill="#dddddd" stroke="#dddddd" points="1629.77,-557.567 1627.49,-564.897 1627.45,-560.188 1625.13,-562.809 1625.13,-562.809 1625.13,-562.809 1627.45,-560.188 1622.77,-560.722 1629.77,-557.567 1629.77,-557.567"/>
</g>
<!-- Mage_Downloadable -->
<g id="node57" class="node"><title>Mage_Downloadable</title>
<polygon fill="#dddddd" stroke="none" points="463.583,-589.872 304.583,-589.872 304.583,-553.872 463.583,-553.872 463.583,-589.872"/>
<text text-anchor="middle" x="384.083" y="-568.172" font-family="verdana" font-size="14.00">Mage_Downloadable</text>
</g>
<!-- Mage_Downloadable&#45;&gt;Mage_Catalog -->
<g id="edge105" class="edge"><title>Mage_Downloadable&#45;&gt;Mage_Catalog</title>
<path fill="none" stroke="#dddddd" d="M396.642,-590.132C422.24,-627.35 480.441,-711.97 509.073,-753.6"/>
<polygon fill="#dddddd" stroke="#dddddd" points="513.075,-759.42 506.513,-755.437 511.092,-756.536 509.109,-753.652 509.109,-753.652 509.109,-753.652 511.092,-756.536 511.704,-751.867 513.075,-759.42 513.075,-759.42"/>
</g>
<!-- Mage_ImportExport -->
<g id="node58" class="node"><title>Mage_ImportExport</title>
<polygon fill="#dddddd" stroke="none" points="189.596,-73.4605 37.5957,-73.4605 37.5957,-37.4605 189.596,-37.4605 189.596,-73.4605"/>
<text text-anchor="middle" x="113.596" y="-51.7605" font-family="verdana" font-size="14.00">Mage_ImportExport</text>
</g>
<!-- Mage_ImportExport&#45;&gt;Mage_Catalog -->
<g id="edge106" class="edge"><title>Mage_ImportExport&#45;&gt;Mage_Catalog</title>
<path fill="none" stroke="#dddddd" d="M123.986,-73.6734C180.152,-172.122 447.304,-640.389 511.644,-753.165"/>
<polygon fill="#dddddd" stroke="#dddddd" points="515.244,-759.476 509.039,-754.957 513.51,-756.436 511.775,-753.396 511.775,-753.396 511.775,-753.396 513.51,-756.436 514.511,-751.835 515.244,-759.476 515.244,-759.476"/>
</g>
<!-- Mage_Api2 -->
<g id="node59" class="node"><title>Mage_Api2</title>
<polygon fill="#dddddd" stroke="none" points="748.763,-1385.75 656.763,-1385.75 656.763,-1349.75 748.763,-1349.75 748.763,-1385.75"/>
<text text-anchor="middle" x="702.763" y="-1364.05" font-family="verdana" font-size="14.00">Mage_Api2</text>
</g>
<!-- Mage_Api2&#45;&gt;Mage_Core -->
<g id="edge107" class="edge"><title>Mage_Api2&#45;&gt;Mage_Core</title>
<path fill="none" stroke="#dddddd" d="M741.459,-1349.54C858.362,-1294.5 1207.52,-1130.13 1332.39,-1071.35"/>
<polygon fill="#dddddd" stroke="#dddddd" points="1338.88,-1068.29 1333.88,-1074.12 1335.71,-1069.78 1332.54,-1071.27 1332.54,-1071.27 1332.54,-1071.27 1335.71,-1069.78 1331.2,-1068.42 1338.88,-1068.29 1338.88,-1068.29"/>
</g>
<!-- Mage_Api2&#45;&gt;Mage_Oauth -->
<g id="edge108" class="edge"><title>Mage_Api2&#45;&gt;Mage_Oauth</title>
<path fill="none" stroke="#dddddd" d="M748.961,-1364.88C779.792,-1362.96 820.618,-1360.42 853.862,-1358.36"/>
<polygon fill="#dddddd" stroke="#dddddd" points="861.267,-1357.9 854.476,-1361.48 857.774,-1358.11 854.281,-1358.33 854.281,-1358.33 854.281,-1358.33 857.774,-1358.11 854.085,-1355.19 861.267,-1357.9 861.267,-1357.9"/>
</g>
<!-- Mage_Ogone -->
<g id="node60" class="node"><title>Mage_Ogone</title>
<polygon fill="#dddddd" stroke="none" points="1438.92,-271.263 1332.92,-271.263 1332.92,-235.263 1438.92,-235.263 1438.92,-271.263"/>
<text text-anchor="middle" x="1385.92" y="-249.563" font-family="verdana" font-size="14.00">Mage_Ogone</text>
</g>
<!-- Mage_Ogone&#45;&gt;Mage_Payment -->
<g id="edge110" class="edge"><title>Mage_Ogone&#45;&gt;Mage_Payment</title>
<path fill="none" stroke="#dddddd" d="M1332.7,-257.302C1201.7,-267.244 863.736,-292.892 718.286,-303.931"/>
<polygon fill="#dddddd" stroke="#dddddd" points="711.086,-304.477 717.827,-300.806 714.576,-304.212 718.066,-303.947 718.066,-303.947 718.066,-303.947 714.576,-304.212 718.304,-307.088 711.086,-304.477 711.086,-304.477"/>
</g>
<!-- Mage_Ogone&#45;&gt;Mage_Sales -->
<g id="edge109" class="edge"><title>Mage_Ogone&#45;&gt;Mage_Sales</title>
<path fill="none" stroke="#dddddd" d="M1359.23,-271.398C1304.59,-308.535 1180.11,-393.13 1120.79,-433.445"/>
<polygon fill="#dddddd" stroke="#dddddd" points="1114.91,-437.438 1118.93,-430.898 1117.81,-435.47 1120.7,-433.503 1120.7,-433.503 1120.7,-433.503 1117.81,-435.47 1122.47,-436.108 1114.91,-437.438 1114.91,-437.438"/>
</g>
<!-- Mage_Persistent -->
<g id="node61" class="node"><title>Mage_Persistent</title>
<polygon fill="#dddddd" stroke="none" points="922.488,-808.483 792.488,-808.483 792.488,-772.483 922.488,-772.483 922.488,-808.483"/>
<text text-anchor="middle" x="857.488" y="-786.783" font-family="verdana" font-size="14.00">Mage_Persistent</text>
</g>
<!-- Mage_Persistent&#45;&gt;Mage_Adminhtml -->
<g id="edge111" class="edge"><title>Mage_Persistent&#45;&gt;Mage_Adminhtml</title>
<path fill="none" stroke="#dddddd" d="M922.568,-793.467C946.647,-794.571 974.14,-795.832 999.055,-796.974"/>
<polygon fill="#dddddd" stroke="#dddddd" points="1006.35,-797.309 999.215,-800.135 1002.86,-797.149 999.359,-796.988 999.359,-796.988 999.359,-796.988 1002.86,-797.149 999.504,-793.842 1006.35,-797.309 1006.35,-797.309"/>
</g>
<!-- Mage_Persistent&#45;&gt;Mage_Checkout -->
<g id="edge112" class="edge"><title>Mage_Persistent&#45;&gt;Mage_Checkout</title>
<path fill="none" stroke="#dddddd" d="M831.749,-808.607C805.167,-827.323 763.659,-856.55 735.151,-876.623"/>
<polygon fill="#dddddd" stroke="#dddddd" points="729.275,-880.76 733.185,-874.155 732.137,-878.745 734.999,-876.73 734.999,-876.73 734.999,-876.73 732.137,-878.745 736.812,-879.306 729.275,-880.76 729.275,-880.76"/>
</g>
<!-- Mage_Weee -->
<g id="node62" class="node"><title>Mage_Weee</title>
<polygon fill="#dddddd" stroke="none" points="1637.94,-50.8906 1537.94,-50.8906 1537.94,-14.8906 1637.94,-14.8906 1637.94,-50.8906"/>
<text text-anchor="middle" x="1587.94" y="-29.1906" font-family="verdana" font-size="14.00">Mage_Weee</text>
</g>
<!-- Mage_Weee&#45;&gt;Mage_Catalog -->
<g id="edge113" class="edge"><title>Mage_Weee&#45;&gt;Mage_Catalog</title>
<path fill="none" stroke="#dddddd" d="M1562.21,-50.9312C1418.45,-151.708 715.6,-644.445 557.31,-755.414"/>
<polygon fill="#dddddd" stroke="#dddddd" points="551.476,-759.504 555.4,-752.906 554.342,-757.495 557.208,-755.485 557.208,-755.485 557.208,-755.485 554.342,-757.495 559.016,-758.065 551.476,-759.504 551.476,-759.504"/>
</g>
<!-- Mage_Weee&#45;&gt;Mage_Sales -->
<g id="edge115" class="edge"><title>Mage_Weee&#45;&gt;Mage_Sales</title>
<path fill="none" stroke="#dddddd" d="M1566.47,-51.0541C1486.21,-118.938 1203.95,-357.684 1115.14,-432.801"/>
<polygon fill="#dddddd" stroke="#dddddd" points="1109.58,-437.509 1112.89,-430.583 1112.25,-435.248 1114.92,-432.988 1114.92,-432.988 1114.92,-432.988 1112.25,-435.248 1116.95,-435.393 1109.58,-437.509 1109.58,-437.509"/>
</g>
<!-- Mage_Weee&#45;&gt;Mage_Tax -->
<g id="edge114" class="edge"><title>Mage_Weee&#45;&gt;Mage_Tax</title>
<path fill="none" stroke="#dddddd" d="M1573.63,-51.1165C1504.61,-139.018 1206.26,-518.982 1128.4,-618.14"/>
<polygon fill="#dddddd" stroke="#dddddd" points="1124.02,-623.727 1125.86,-616.276 1126.18,-620.975 1128.34,-618.222 1128.34,-618.222 1128.34,-618.222 1126.18,-620.975 1130.82,-620.167 1124.02,-623.727 1124.02,-623.727"/>
</g>
<!-- Mage_CurrencySymbol -->
<g id="node63" class="node"><title>Mage_CurrencySymbol</title>
<polygon fill="#dddddd" stroke="none" points="2043.32,-373.385 1869.32,-373.385 1869.32,-337.385 2043.32,-337.385 2043.32,-373.385"/>
<text text-anchor="middle" x="1956.32" y="-351.685" font-family="verdana" font-size="14.00">Mage_CurrencySymbol</text>
</g>
<!-- Mage_CurrencySymbol&#45;&gt;Mage_Widget -->
<g id="edge116" class="edge"><title>Mage_CurrencySymbol&#45;&gt;Mage_Widget</title>
<path fill="none" stroke="#dddddd" d="M1925.7,-373.538C1868.15,-407.649 1744.12,-481.169 1682.33,-517.799"/>
<polygon fill="#dddddd" stroke="#dddddd" points="1676.19,-521.439 1680.6,-515.16 1679.2,-519.654 1682.21,-517.869 1682.21,-517.869 1682.21,-517.869 1679.2,-519.654 1683.82,-520.579 1676.19,-521.439 1676.19,-521.439"/>
</g>
<!-- Mage_XmlConnect -->
<g id="node64" class="node"><title>Mage_XmlConnect</title>
<polygon fill="#dddddd" stroke="none" points="1716.8,-323.943 1571.8,-323.943 1571.8,-287.943 1716.8,-287.943 1716.8,-323.943"/>
<text text-anchor="middle" x="1644.3" y="-302.243" font-family="verdana" font-size="14.00">Mage_XmlConnect</text>
</g>
<!-- Mage_XmlConnect&#45;&gt;Mage_Catalog -->
<g id="edge122" class="edge"><title>Mage_XmlConnect&#45;&gt;Mage_Catalog</title>
<path fill="none" stroke="#dddddd" d="M1601.47,-324.001C1426,-397.991 762.432,-677.782 575.116,-756.764"/>
<polygon fill="#dddddd" stroke="#dddddd" points="568.392,-759.599 573.618,-753.977 571.617,-758.239 574.842,-756.879 574.842,-756.879 574.842,-756.879 571.617,-758.239 576.066,-759.782 568.392,-759.599 568.392,-759.599"/>
</g>
<!-- Mage_XmlConnect&#45;&gt;Mage_CatalogSearch -->
<g id="edge123" class="edge"><title>Mage_XmlConnect&#45;&gt;Mage_CatalogSearch</title>
<path fill="none" stroke="#dddddd" d="M1617.46,-324.027C1432.86,-448.394 352.592,-1176.18 149.376,-1313.09"/>
<polygon fill="#dddddd" stroke="#dddddd" points="143.344,-1317.16 147.389,-1310.63 146.247,-1315.2 149.149,-1313.24 149.149,-1313.24 149.149,-1313.24 146.247,-1315.2 150.909,-1315.86 143.344,-1317.16 143.344,-1317.16"/>
</g>
<!-- Mage_XmlConnect&#45;&gt;Mage_CatalogInventory -->
<g id="edge124" class="edge"><title>Mage_XmlConnect&#45;&gt;Mage_CatalogInventory</title>
<path fill="none" stroke="#dddddd" d="M1621.48,-324.145C1488.85,-429.95 817.902,-965.189 670.643,-1082.66"/>
<polygon fill="#dddddd" stroke="#dddddd" points="664.824,-1087.3 668.332,-1080.48 667.56,-1085.12 670.297,-1082.94 670.297,-1082.94 670.297,-1082.94 667.56,-1085.12 672.261,-1085.4 664.824,-1087.3 664.824,-1087.3"/>
</g>
<!-- Mage_XmlConnect&#45;&gt;Mage_Usa -->
<g id="edge119" class="edge"><title>Mage_XmlConnect&#45;&gt;Mage_Usa</title>
<path fill="none" stroke="#dddddd" d="M1581.45,-287.881C1405.75,-237.384 911.907,-95.4545 753.05,-49.7996"/>
<polygon fill="#dddddd" stroke="#dddddd" points="746.19,-47.8279 753.788,-46.734 749.554,-48.7947 752.918,-49.7615 752.918,-49.7615 752.918,-49.7615 749.554,-48.7947 752.047,-52.789 746.19,-47.8279 746.19,-47.8279"/>
</g>
<!-- Mage_XmlConnect&#45;&gt;Mage_Checkout -->
<g id="edge117" class="edge"><title>Mage_XmlConnect&#45;&gt;Mage_Checkout</title>
<path fill="none" stroke="#dddddd" d="M1615.64,-324.008C1478.38,-410.518 888.735,-782.147 738.598,-876.773"/>
<polygon fill="#dddddd" stroke="#dddddd" points="732.61,-880.547 736.853,-874.15 735.571,-878.681 738.532,-876.814 738.532,-876.814 738.532,-876.814 735.571,-878.681 740.212,-879.479 732.61,-880.547 732.61,-880.547"/>
</g>
<!-- Mage_XmlConnect&#45;&gt;Mage_Paypal -->
<g id="edge118" class="edge"><title>Mage_XmlConnect&#45;&gt;Mage_Paypal</title>
<path fill="none" stroke="#dddddd" d="M1596.09,-287.926C1464.49,-238.748 1099.67,-102.414 960.291,-50.3262"/>
<polygon fill="#dddddd" stroke="#dddddd" points="953.427,-47.761 961.087,-47.2608 956.706,-48.9863 959.984,-50.2115 959.984,-50.2115 959.984,-50.2115 956.706,-48.9863 958.882,-53.1622 953.427,-47.761 953.427,-47.761"/>
</g>
<!-- Mage_XmlConnect&#45;&gt;Mage_Review -->
<g id="edge128" class="edge"><title>Mage_XmlConnect&#45;&gt;Mage_Review</title>
<path fill="none" stroke="#dddddd" d="M1643.11,-323.994C1634.78,-450.022 1585.4,-1197.68 1575.6,-1346.08"/>
<polygon fill="#dddddd" stroke="#dddddd" points="1575.11,-1353.46 1572.43,-1346.27 1575.34,-1349.97 1575.57,-1346.48 1575.57,-1346.48 1575.57,-1346.48 1575.34,-1349.97 1578.71,-1346.69 1575.11,-1353.46 1575.11,-1353.46"/>
</g>
<!-- Mage_XmlConnect&#45;&gt;Mage_Rating -->
<g id="edge127" class="edge"><title>Mage_XmlConnect&#45;&gt;Mage_Rating</title>
<path fill="none" stroke="#dddddd" d="M1638.56,-324.207C1599.65,-448.079 1374.63,-1164.43 1329.52,-1308.02"/>
<polygon fill="#dddddd" stroke="#dddddd" points="1327.39,-1314.8 1326.48,-1307.18 1328.44,-1311.46 1329.49,-1308.12 1329.49,-1308.12 1329.49,-1308.12 1328.44,-1311.46 1332.5,-1309.07 1327.39,-1314.8 1327.39,-1314.8"/>
</g>
<!-- Mage_XmlConnect&#45;&gt;Mage_Tax -->
<g id="edge120" class="edge"><title>Mage_XmlConnect&#45;&gt;Mage_Tax</title>
<path fill="none" stroke="#dddddd" d="M1615.56,-324.004C1524.65,-381.138 1243.51,-557.823 1144.61,-619.98"/>
<polygon fill="#dddddd" stroke="#dddddd" points="1138.64,-623.731 1142.89,-617.34 1141.61,-621.869 1144.57,-620.007 1144.57,-620.007 1144.57,-620.007 1141.61,-621.869 1146.25,-622.674 1138.64,-623.731 1138.64,-623.731"/>
</g>
<!-- Mage_XmlConnect&#45;&gt;Mage_Wishlist -->
<g id="edge126" class="edge"><title>Mage_XmlConnect&#45;&gt;Mage_Wishlist</title>
<path fill="none" stroke="#dddddd" d="M1630.5,-324.384C1587.24,-382.213 1454.23,-559.999 1405.67,-624.901"/>
<polygon fill="#dddddd" stroke="#dddddd" points="1401.24,-630.822 1402.92,-623.33 1403.34,-628.019 1405.44,-625.217 1405.44,-625.217 1405.44,-625.217 1403.34,-628.019 1407.96,-627.104 1401.24,-630.822 1401.24,-630.822"/>
</g>
<!-- Mage_XmlConnect&#45;&gt;Mage_Bundle -->
<g id="edge125" class="edge"><title>Mage_XmlConnect&#45;&gt;Mage_Bundle</title>
<path fill="none" stroke="#dddddd" d="M1571.58,-322.061C1303.21,-381.547 371.064,-588.163 121.684,-643.439"/>
<polygon fill="#dddddd" stroke="#dddddd" points="114.507,-645.03 120.659,-640.44 117.924,-644.273 121.341,-643.515 121.341,-643.515 121.341,-643.515 117.924,-644.273 122.023,-646.591 114.507,-645.03 114.507,-645.03"/>
</g>
<!-- Mage_XmlConnect&#45;&gt;Mage_Weee -->
<g id="edge121" class="edge"><title>Mage_XmlConnect&#45;&gt;Mage_Weee</title>
<path fill="none" stroke="#dddddd" d="M1640.52,-287.603C1630.69,-239.998 1604.35,-112.417 1593.13,-58.0209"/>
<polygon fill="#dddddd" stroke="#dddddd" points="1591.71,-51.1505 1596.21,-57.3692 1592.42,-54.5782 1593.12,-58.006 1593.12,-58.006 1593.12,-58.006 1592.42,-54.5782 1590.04,-58.6428 1591.71,-51.1505 1591.71,-51.1505"/>
</g>
</g>
</svg>
